<svg width="283" height="230" viewBox="0 0 283 230" fill="none" xmlns="http://www.w3.org/2000/svg">
<g clip-path="url(#clip0_2087_18566)">
<path d="M39.5915 180.068L34.5258 179.134L28.4979 178.625L18.4514 179.134L17.9137 179.049L17.6307 178.851L17.4043 178.568L17.0647 178.314L17.4609 178.172L17.7156 178.314L18.0835 178.003L18.225 178.116L18.3665 178.823L19.1872 178.059L19.4136 178.285L19.8947 178.172L20.3475 178.144L20.7437 178.087L21.1116 177.889L21.4512 177.522L21.4795 177.267L21.4512 176.786L21.6776 176.701H22.6398L23.1492 176.616L24.168 176.277L24.5076 176.362L25.017 176.164L25.4981 175.881L25.8377 175.513L25.9509 175.004L26.2339 174.891L28.2149 174.579L27.8753 174.381L27.564 174.438L26.2339 174.099L24.9038 174.608L23.6303 175.343L22.4983 175.711L21.8191 175.768L20.9984 176.192L20.4607 176.362H20.1494L19.7815 176.22H19.4985L19.2721 176.022L19.1589 175.428L19.3287 174.919V174.579L18.9325 174.834L18.6495 175.06L18.1401 175.654L17.4892 175.768L17.4043 175.966L17.5458 176.475L17.4609 176.956L17.1496 177.465L16.9798 177.918L16.7251 178.201L17.1779 178.908L17.0647 179.445L15.678 179.587L13.0461 179.474L9.96137 179.813L6.31067 179.643L1.04688 180.124V178.682L1.21668 177.635L2.15057 177.72L2.94297 177.635L3.56558 177.833L4.15987 177.805L4.78247 177.38L5.23527 176.871L5.20697 176.531L5.46167 176.39L10.6123 176.616L11.999 176.447L12.3386 176.051L12.5933 174.891L12.9329 174.41L13.3008 174.014L13.6404 172.797L13.7819 172.458L14.5177 172.146L15.0837 172.316L16.1591 172.882L16.6968 173.589L17.5458 173.618L17.9986 173.533L18.2816 173.137L18.3382 172.797L18.5646 172.571L32.3184 172.514L33.7051 172.882L33.4504 173.504L32.8844 173.957L32.6863 174.551L32.9127 175.117L32.941 175.428L33.6202 175.966L34.3277 175.598L35.0352 175.117L35.7993 174.947L36.4785 175.202L36.7332 175.683L36.5068 176.192L35.1484 176.928L35.205 177.522L35.7427 177.861L36.3936 178.031L36.7332 178.342L37.1294 178.597L37.6671 178.455L39.0255 178.512L39.6764 178.738L39.7047 179.361L39.5915 180.068Z" fill="#E30325" stroke="white" stroke-width="0.8" stroke-linecap="round" stroke-linejoin="round"/>
<path d="M33.3659 162.499L35.0356 161.679L35.5167 162.697L35.7148 163.744L36.677 163.631L37.5543 163.065L38.658 163.037L39.4221 163.687L39.7051 164.281L39.9315 164.876L39.9881 165.272L40.1296 165.611L40.7805 165.639L41.6295 165.187L42.1106 165.328L42.62 165.357L43.0162 165.187L43.4407 165.074L44.4029 164.989L44.7708 165.441L44.2331 168.553L43.7803 169.147L41.6578 170.703L40.4975 171.948L39.9032 173.504V174.24L40.2428 174.834L40.5541 175.06L41.3182 175.315L41.7144 175.371L42.9313 175.428L43.9501 174.777L44.318 174.24L44.9123 173.957L45.3368 174.579V176.248L45.5632 177.352L45.5066 177.691L45.2236 177.974L44.8557 178.087L43.6671 178.964L42.903 179.077L42.5068 179.219L42.9313 179.7H43.6388L44.9406 180.265L44.9689 180.916L44.601 181.341L43.186 181.227L43.1577 181.256L41.0918 180.35L39.5919 180.067L39.7051 179.36L39.6768 178.738L39.0259 178.511L37.6675 178.455L37.1298 178.596L36.7336 178.342L36.394 178.031L35.7431 177.861L35.2054 177.521L35.1488 176.927L36.5072 176.192L36.7336 175.682L36.4789 175.202L35.7997 174.947L35.0356 175.117L34.3281 175.598L33.6206 175.965L32.9414 175.428L32.9131 175.117L32.6867 174.551L32.8848 173.957L33.4508 173.504L33.7055 172.882L32.3188 172.514L18.565 172.571L18.3386 172.797L18.282 173.136L17.999 173.532L17.5462 173.617L16.6972 173.589L16.1595 172.882L15.0841 172.316L14.5181 172.146L13.7823 172.457L13.6408 172.797L13.3012 174.013L12.9333 174.409L12.5937 174.89L12.339 176.05L11.9994 176.446L10.6127 176.616L5.4621 176.39L5.2074 176.531L5.2357 176.871L4.7829 177.38L4.1603 177.804L3.566 177.833L2.9434 177.634L2.151 177.719L1.2171 177.634L1.302 177.154L1.8397 175.626L1.868 175.145L1.6699 174.126V173.646L1.9529 173.136L2.3774 172.769L2.6604 172.571L2.8019 172.288L2.717 171.213L2.6887 170.958L2.5472 170.845L2.0095 170.76L1.6133 170.364L1.5001 169.911L1.5567 169.402L1.8114 168.412L1.6982 167.393L1.3869 166.488L1.302 165.639L1.9246 164.791L2.7453 164.423L2.8302 164.168L2.6887 163.942L2.0661 163.433L1.868 163.178L1.8114 162.726L2.1227 162.103L2.3208 161.849L2.4057 161.311L1.9246 155.455L1.9812 155.2L2.151 155.087H2.4057L2.9151 155.2L3.0566 154.804L3.1132 153.814L2.6038 152.937L1.8963 152.117L1.4435 151.24L1.302 150.306L1.585 146.317L1.5284 145.978L1.302 145.638L0.764303 144.988L0.481303 144.309L0.283203 143.941L0.453003 143.856L2.4623 142.413L4.7546 142.47L5.3489 143.601L5.4621 146.232L5.8866 147.534L6.5375 147.647L6.7639 146.43L7.1035 145.384L8.0091 145.355L8.1506 147.449L7.2733 149.853L7.3016 150.363L7.7544 151.579L8.7449 152.4L9.509 153.418L10.5844 155.342L12.2258 156.841L13.5276 157.294L14.8294 157.237L15.7916 156.417L16.7255 154.069L17.716 153.418L18.565 154.069L18.9895 155.229L19.6687 155.596L20.3479 155.229L21.0554 154.917L23.4043 154.974L24.225 156.134L24.1967 157.464L24.2533 157.86L24.9608 158.369L25.64 158.737L25.7815 159.161V159.614L25.8381 159.981L26.0079 160.321L26.2909 161.735L25.4136 162.952L24.7627 164.027L26.1777 164.083L29.0926 163.744L30.5359 163.348L31.1868 162.924L31.9509 162.669L32.6584 162.612L33.3659 162.499Z" fill="#E30325" stroke="white" stroke-width="0.8" stroke-linecap="round" stroke-linejoin="round"/>
<path d="M79.2969 151.552L78.8724 152.259L78.3347 152.91L78.0517 153.051L77.4008 153.192L77.0895 153.475L76.8631 154.296L77.5706 154.748L77.6838 155.173L77.4291 155.682L77.514 156.418L77.6555 156.757L77.7404 157.295L77.514 158.058L77.2027 158.398L76.8065 158.653L76.2405 159.162L75.7311 159.756L75.7028 160.067L75.7594 160.293L74.684 162.783L74.5425 163.349L74.2312 163.773L73.6086 164.424L73.2973 165.272L73.2407 166.121L73.5803 166.828L73.6652 167.111L73.3539 167.536L73.3822 167.903L72.8445 168.045L72.6181 168.639L72.3351 170.138L72.2219 170.478L71.8823 171.044L71.6276 171.213L71.2314 171.355L70.4956 171.185L70.1843 170.902L69.5051 170.846L68.3448 171.779L67.8354 171.864L67.2128 170.308L67.4392 169.629L67.8354 169.035L66.76 168.186H60.1661L59.7699 168.356L59.4869 168.667V169.29L59.119 169.799L58.8077 170.421L57.9587 171.242L57.2512 172.147L56.9682 172.656L56.8833 173.42L56.7984 173.76V174.495L56.9116 174.693L57.1097 174.778L57.5059 175.429L57.9304 176.673L57.3927 177.918L56.9965 178.512L56.8267 179.22L56.4871 179.814L55.8928 180.125L55.3834 180.295L55.0438 180.804L54.9306 181.483L54.591 182.133L54.7325 182.36L55.2136 182.643L55.7796 183.124L56.2607 183.718L56.3173 184.029L56.8267 184.114L57.3644 184.425L57.8172 185.104L57.7889 185.868L55.157 192.29L52.4119 188.697L51.9308 188.244L50.9969 187.848L50.5724 187.367L49.9781 186.434L49.1574 185.557L48.4216 184.991L45.8746 183.378L44.4313 182.02L43.5257 181.426L43.1578 181.256L43.1861 181.228L44.6011 181.341L44.969 180.917L44.9407 180.266L43.6389 179.7H42.9314L42.5069 179.22L42.9031 179.078L43.6672 178.965L44.8558 178.088L45.2237 177.975L45.5067 177.692L45.5633 177.352L45.3369 176.249V174.58L44.9124 173.958L44.3181 174.24L43.9502 174.778L42.9314 175.429L41.7145 175.372L41.3183 175.316L40.5542 175.061L40.2429 174.835L39.9033 174.24V173.505L40.4976 171.949L41.6579 170.704L43.7804 169.148L44.2332 168.554L44.7709 165.442L45.6765 164.961L46.0444 164.452L46.2142 163.83L46.8651 162.755L47.8556 161.934L48.7895 161.68L49.6668 162.047L50.8554 162.811L51.1384 162.953L51.761 163.009L52.0157 162.839L52.0723 162.302L52.0157 161.764L52.1006 161.142L52.0723 159.36L52.2704 158.228L52.6949 157.097L53.7137 156.587L54.874 156.248L54.9023 155.314L56.5437 154.777L57.421 154.748L59.9963 154.918L61.666 154.833L62.8829 155.201L63.4489 156.333L63.9583 158.002L65.2601 158.511L67.7505 156.418L69.0523 153.391L69.4485 151.127L69.7598 150.448L70.8069 149.345L71.4012 148.977L71.7125 148.581L71.9389 148.157L72.5332 147.817L73.1841 148.1L73.7784 147.874L74.2029 147.195L76.099 146.855L76.8065 147.167L76.6367 148.1L77.8253 149.939L79.2969 151.552Z" fill="#E30325" stroke="white" stroke-width="0.8" stroke-linecap="round" stroke-linejoin="round"/>
<path d="M74.2025 147.194L73.778 147.873L73.1837 148.1L72.5328 147.817L71.9385 148.156L71.7121 148.58L71.4008 148.977L70.8065 149.344L69.7594 150.448L69.4481 151.127L69.0519 153.39L67.7501 156.417L65.2597 158.51L63.9579 158.001L63.4485 156.332L62.8825 155.2L61.6656 154.833L59.9959 154.917L57.4206 154.748L56.5433 154.776L54.9019 155.314L53.0341 150.25L52.8926 149.033L53.1473 147.986L53.3454 145.129L54.4491 143.686L55.3264 143.262L56.0622 142.611L56.5999 140.659L56.8829 140.829L56.9961 141.253L57.4772 141.451L58.9488 140.999L60.5053 141.989L61.4392 142.045L62.0335 142.187L63.024 142.017H63.4202L63.7032 141.451L63.8447 140.687L64.3541 140.093L65.1748 139.839L67.7218 139.754L67.2407 140.405L67.269 141.423L67.7218 141.593L68.3727 141.197L69.2217 140.999L70.0707 140.914L70.5235 140.97L70.8631 141.225L70.8348 141.763L70.2971 142.074L69.6179 142.922L69.4481 143.941L69.7877 144.959L70.5801 145.667L70.8914 145.638L71.2876 145.978L73.1271 146.883L74.2025 147.194Z" fill="#E30325" stroke="white" stroke-width="0.8" stroke-linecap="round" stroke-linejoin="round"/>
<path d="M56.5998 140.66L56.0621 142.612L55.3263 143.263L54.449 143.687L53.3453 145.13L53.1472 147.987L52.8925 149.034L53.034 150.25L54.9018 155.314L54.8735 156.248L53.7132 156.587L52.6944 157.097L52.2699 158.228L52.0718 159.36L52.1001 161.142L52.0152 161.764L52.0718 162.302L52.0152 162.839L51.7605 163.009L51.1379 162.953L50.8549 162.811L49.6663 162.047L48.789 161.68L47.8551 161.934L46.8646 162.755L46.2137 163.83L46.0439 164.452L45.676 164.961L44.7704 165.442L44.4025 164.99L43.4403 165.074L43.0158 165.188L42.6196 165.357L42.1102 165.329L41.6291 165.188L40.7801 165.64L40.1292 165.612L39.9877 165.272L39.9311 164.876L39.7047 164.282L39.4217 163.688L38.6576 163.037L37.5539 163.066L36.6766 163.632L35.7144 163.745L35.5163 162.698L35.0352 161.68L33.3655 162.5L34.9786 153.9L34.8371 153.221L34.3843 152.683L34.0164 151.919L33.4787 151.269L32.8278 150.844L32.3467 150.307L32.375 149.628L32.7712 149.034L32.9976 148.355L33.1108 147.648L33.1957 146.092L33.5919 145.017L35.1767 145.441L36.3936 144.564L36.3653 144.055L36.8181 143.63L37.2426 143.008L37.752 142.499L38.4878 142.782L39.1387 143.347L40.016 144.762L40.9499 144.96L41.4593 144.451L42.1385 143.97L42.4215 143.602L42.6479 143.517L43.0441 143.178L43.4969 142.923L43.9214 142.753L44.4308 142.668L44.7421 142.216L44.7987 141.395L44.6289 140.603L46.1571 140.518L47.6853 140.66L49.0154 140.377L49.6097 140.122L50.2606 139.981L51.7888 139.839L52.7227 139.472L53.7132 139.5L54.1943 140.32L54.9018 140.773L56.2602 140.603L56.5998 140.66Z" fill="#E30325" stroke="white" stroke-width="0.8" stroke-linecap="round" stroke-linejoin="round"/>
<path d="M44.6293 140.603L44.7991 141.395L44.7425 142.215L44.4312 142.668L43.9218 142.753L43.4973 142.923L43.0445 143.177L42.6483 143.517L42.4219 143.602L42.1389 143.969L41.4597 144.45L40.9503 144.96L40.0164 144.762L39.1391 143.347L38.4882 142.781L37.7524 142.498L37.243 143.008L36.8185 143.63L36.3657 144.054L36.394 144.564L35.1771 145.441L33.5923 145.016L33.1961 146.091L33.1112 147.647L32.998 148.354L32.7716 149.033L32.3754 149.628L32.3471 150.306L32.8282 150.844L33.4791 151.268L34.0168 151.919L34.3847 152.683L34.8375 153.22L34.979 153.899L33.3659 162.5L32.6584 162.613L31.9509 162.669L31.1868 162.924L30.5359 163.348L29.0926 163.744L26.1777 164.084L24.7627 164.027L25.4136 162.952L26.2909 161.736L26.0079 160.321L25.8381 159.982L25.7815 159.614V159.161L25.64 158.737L24.9608 158.369L24.2533 157.86L24.1967 157.464L24.225 156.134L23.4043 154.974L21.0554 154.918L20.3479 155.229L19.6687 155.597L18.9895 155.229L18.565 154.069L17.716 153.418L16.7255 154.069L15.7916 156.417L14.8294 157.238L13.5276 157.294L12.2258 156.842L10.5844 155.342L9.509 153.418L8.7449 152.4L7.7544 151.58L7.3016 150.363L7.2733 149.854L8.1506 147.449L8.0091 145.356L7.1035 145.384L6.7639 146.431L6.5375 147.647L5.8866 147.534L5.4621 146.233L5.3489 143.602L4.7546 142.47L2.4623 142.413L0.453003 143.856L0.283203 143.941L0.311503 143.658L0.651103 142.979L0.736003 141.48L1.019 139.981L1.0756 138.566L1.1605 138.113L1.3303 137.717L1.585 137.321L1.7548 136.869L1.7831 136.359L1.6133 135.85L1.1605 134.86L0.962403 134.351L0.877503 133.757L0.905803 133.304L1.1039 132.342L1.0473 131.465L1.1605 131.154L1.6416 130.616L1.8114 130.334L2.0095 129.541L1.9529 128.834L3.3396 127.646L4.2452 127.674L6.113 127.25L6.679 126.882L7.1035 126.345L8.4053 125.298L8.943 125.072L9.1128 124.845L9.4807 124.534L9.9618 124.251L10.924 123.402L11.4334 123.091L11.9711 122.921L12.339 122.893L12.7352 122.978L12.905 123.233L13.188 123.374L13.4427 123.657L13.754 123.6L16.5274 122.327L17.5745 121.535L18.5367 121.054L19.5555 120.29L24.3948 117.858L24.9325 117.461L25.3853 116.952L25.6117 115.396L26.206 114.236L27.2531 113.473L28.3851 113.359L29.4605 113.84L30.1397 114.717L30.6774 115.764L31.583 116.556L32.6301 117.094L35.4035 118.084L37.1298 118.48H37.7807L38.941 117.773L39.3372 118.678L38.5448 119.838L37.7524 120.29L37.1864 120.885L36.7902 121.507L36.2808 122.016L35.9695 123.459L36.2808 124.902L38.375 129.541L39.1957 130.814L40.0164 134.011L40.8654 135.256L41.4031 135.737L42.0257 136.133L42.8747 137.519L43.5539 139.782L43.8369 140.263L44.2331 140.348L44.6293 140.603Z" fill="#E30325" stroke="white" stroke-width="0.8" stroke-linecap="round" stroke-linejoin="round"/>
<path d="M123.275 203.887L122.624 204.623L123.02 205.641L123.275 206.066L123.756 206.434L125.143 206.207L125.737 206.349L126.784 207.028L127.18 207.48L127.01 210.366L127.322 211.667L127.973 212.855L128.822 214.044L131.567 216.929L132.472 217.608L132.755 217.665L132.897 217.778L133.236 218.796L133.519 219.192L133.265 219.871L133.236 220.098L133.321 220.409L133.831 220.635L134.029 220.805L134.114 221.371L133.746 221.71L133.265 221.965L133.067 222.361L132.727 223.068L132.274 223.238H131.255L129.925 223.068H127.888L126.926 222.927L126.473 222.955L125.68 223.351L125.228 223.408H124.18L120.162 223.889L119.935 223.747L119.652 223.719L119.369 223.804L119.2 224.058H119.652L119.992 224.228L119.483 224.341L118.719 224.398L118.039 224.285L117.728 223.974L117.388 223.889L115.323 223.747L115.492 223.493L115.323 223.323L114.87 223.351L114.813 223.068L114.898 222.927L115.209 222.7L115.323 222.446L114.813 221.795L114.983 221.456L114.643 221.06L114.728 220.466L115.153 219.362H114.983L114.728 219.532L114.757 218.966L114.558 218.089L114.134 217.438L113.851 216.844L113.681 215.854L113.172 214.921L113.228 214.525L113.37 214.1L113.059 212.94L113.596 212.092L114.36 211.328L114.502 210.281L114.36 209.178L114.445 208.159L114.785 206.66L114.728 206.207L114.502 205.783L114.53 205.302L115.577 205.019L116.794 205.189L117.473 204.736L117.615 204.284L117.36 203.831L116.794 203.661L116.822 203.35L117.388 202.049L117.247 200.436L117.87 199.983L118.775 200.125L119.935 200.945L120.728 202.19L122.058 202.926L123.275 203.887Z" fill="#2249D1" stroke="white" stroke-width="0.8" stroke-linecap="round" stroke-linejoin="round"/>
<path d="M112.804 224.907L113.229 225.02L113.653 224.964L114.502 224.737L115.691 224.624L115.917 224.709L115.804 225.02L115.578 225.303L115.181 225.388L114.276 225.36L113.908 225.416L112.748 225.841L112.323 225.869L110.597 225.756L110.229 225.586L110.087 225.275L110.314 224.851L110.569 224.737L111.701 224.37L111.984 224.483L112.804 224.907ZM108.248 224.398L108.616 224.539L109.691 224.426L110.003 224.539L109.72 224.794L109.578 225.077L109.521 225.756L109.408 226.124L109.182 226.35L108.531 226.689L106.437 227.114L105.644 227.057L105.418 226.774L105.644 226.322L106.408 225.53L106.918 224.709L107.371 224.172L107.569 223.549L107.908 223.747L108.248 224.398ZM108.078 207.905L108.559 208.782L108.446 209.942L106.012 213.676L106.324 215.515L107.286 215.798L109.21 215.402L110.144 215.373L111.021 215.741L112.267 215.769L113.851 216.844L114.134 217.439L114.559 218.089L114.757 218.966L114.729 219.532L114.417 219.843L114.361 220.098L114.474 220.692V220.918L114.276 221.201V221.371L114.587 221.739L114.672 221.937L114.191 222.446L113.71 222.757L113.455 222.785L113.229 222.587H113.059L112.861 223.068L112.351 223.012L111.531 222.587L110.936 222.559L110.342 222.446L109.804 222.191L109.521 221.795L109.21 221.937H108.786L108.588 222.361L108.389 222.446V222.587L108.701 222.757L108.559 222.927L108.842 223.012L109.267 223.351L109.889 223.493L110.003 223.634L109.833 224.058L108.786 224.228L108.135 223.323L106.663 221.71L106.437 221.201V220.579L106.38 220.352H106.239L105.899 220.494L105.39 220.522L104.682 219.928L104.512 219.673L104.116 218.598L103.833 218.457L103.522 218.881L103.578 219.108L103.861 219.193L104.031 219.362L104.258 220.154L104.484 220.522L104.909 220.664L105.644 221.031L106.154 221.824L106.239 222.616L105.644 222.927L105.956 223.125L106.295 223.464L106.522 223.889L106.352 224.313L105.729 225.02L105.305 225.218L104.824 225.02V225.501L104.399 225.303L104.06 225.02L103.918 224.681L104.031 224.228L103.72 224.511L103.635 224.907L103.777 225.303L104.031 225.671L103.38 225.841H103.211L102.928 225.275L102.786 224.681L102.729 223.493L102.333 222.842L102.22 222.446L102.475 222.276L102.701 221.625L102.786 221.145L102.729 220.805L103.211 220.975L103.041 220.692L102.588 220.183L102.362 219.391L102.248 219.193L101.824 219.787H101.654L101.569 219.419L101.286 218.881L101.173 219.249L101.23 219.815L101.116 219.985L101.399 220.381L101.909 221.795L101.513 221.767L101.286 221.456L100.975 221.625L100.748 221.173L100.522 220.777L99.8428 219.985L99.8711 220.381L99.9843 220.692L100.324 221.286L100.607 221.682L100.55 222.078L100.324 222.333L100.494 222.587L100.72 222.22L101.173 222.106L101.569 222.22L101.767 222.531L101.541 224.143L101.597 224.709L102.418 226.35L102.729 226.746L102.56 227.199L102.333 227.284L102.022 227.255L101.314 226.944L101.456 227.284L100.947 227.142L100.409 226.887L99.8995 226.774L99.3335 226.972L99.0788 226.689L98.8806 226.322L98.8523 225.897L99.0221 225.501L98.6259 225.275L98.2581 224.681L98.0033 223.917L97.8901 223.323L97.9468 222.899L98.0599 222.672L98.3996 222.276L98.5976 221.654L98.5411 221.286L98.1448 221.145L97.5506 220.805L97.1261 220.013L96.7581 218.542L96.7016 217.976L96.7581 217.665L97.1826 217.042L97.1261 216.844L96.8996 216.816L96.6166 217.099L96.3903 216.816L96.2771 216.42L95.8808 216.562L95.4846 216.42L95.5696 216.844L95.6261 217.269L95.7393 217.608L96.0506 217.75L96.2488 217.919L96.4186 218.344L96.6166 219.193L96.7016 220.07L96.8148 220.494L97.3241 220.805L97.6355 221.173L98.0599 221.937L97.5223 222.389L97.4091 222.587L97.3808 222.927L97.8336 225.247L98.0883 225.954L98.3996 226.322L98.3429 226.859L98.8241 227.284L99.1353 227.623L98.5411 227.934L97.8053 228.076L96.8713 228.132L95.9941 228.047L95.4846 227.764L95.3998 227.425L95.4846 226.039L95.6261 225.756L95.3148 225.36V224.539L95.3998 224.143L95.9375 222.729L95.9941 222.474L95.9658 221.795L95.6544 222.163L95.3714 221.795L94.6073 221.456L93.9564 220.947L93.5886 220.154L93.3905 219.306L91.9471 218.4L89.9945 219.136L89.2586 219.193L89.004 218.485L89.1171 218.033L88.9191 217.75L88.5795 217.721L88.2398 217.552L87.7021 216.844L87.7305 215.883L87.9851 215.062L88.4663 214.355L88.5228 214.015L88.7493 213.506L89.1738 213.054L88.8625 212.601L88.6926 212.063V211.582L88.8058 210.988L88.9473 210.507L89.0888 210.281L89.5133 210.083L89.7115 209.574L89.8246 208.499L90.1643 207.735L90.6736 207.254L91.2396 206.83L92.0321 205.839L92.3433 205.189L92.7961 205.104L93.1641 204.736L93.2206 204.453L93.1075 204.227L92.4283 203.435L90.2491 203.237L89.8246 202.19L90.3058 201.681L90.8718 201.426L91.3246 200.945L91.6076 200.379L91.8056 199.22L92.2868 198.145L92.8811 195.4L93.5886 196.051L94.3809 196.108L94.0979 196.928L93.3621 200.634L93.5319 201.172L94.3526 201.228L95.2299 201.03L96.1921 202.049L95.9941 203.718L95.6544 204.482L95.6828 205.302L95.9091 205.557L96.4751 205.981L96.6449 206.292L99.1071 207.905L102.446 208.131L105.39 207.848L106.635 208.216L107.399 208.103L108.078 207.905Z" fill="#2249D1" stroke="white" stroke-width="0.8" stroke-linecap="round" stroke-linejoin="round"/>
<path d="M95.6542 222.163L95.5127 222.333L95.1448 223.323L95.0033 224.398L95.1448 225.191L95.0599 225.389L95.0033 226.152L94.7769 225.615L94.692 225.304L94.6354 223.861L94.5222 223.55L94.3241 223.861L94.0128 224.059L94.1543 224.398L94.1826 225.502L94.2675 225.87L94.5505 226.379L94.7486 226.86L94.975 227.652L95.0033 227.935L94.8052 228.189L94.5788 228.274H93.843L93.1921 228.331L93.0506 228.189L92.7959 227.425L92.7393 226.69L92.7676 225.615L92.6544 224.766L92.3148 224.144L91.579 224.229L92.2582 224.738L92.4846 225.558L92.3997 226.52L92.0884 227.454L92.0318 228.246L90.8715 228.501L89.5131 228.387L88.8622 227.935L88.2396 228.104L88.4094 228.529L88.0132 228.67L87.4189 228.727L86.9944 228.84L86.5416 229.038L85.4662 229.066L84.9851 229.236L84.4474 228.585L84.9285 227.567L86.4567 225.841L85.8058 225.756L85.636 225.841L84.8153 226.803L84.7021 225.53L84.3342 224.37H84.1927L84.1644 224.851L84.221 225.445L84.3059 226.039L84.0795 225.983L83.7965 225.756L83.372 225.671L83.6267 226.209L83.8814 226.577L84.0512 226.973L84.0229 227.595L83.8531 228.076L83.6833 228.416L83.2022 228.727L83.2305 229.066L83.5418 228.953L83.8814 229.066L83.7399 229.293L83.0607 229.519L82.2117 229.547L81.6174 229.406L81.2778 229.717L80.9099 229.576L80.6835 229.349L80.6269 229.01V228.585L80.7401 228.189L81.0514 227.624L81.108 227.284L80.6269 227.454V227.086L80.7118 226.435L80.2307 226.35L79.9477 226.237L79.6364 226.322L79.5798 226.548L79.6364 226.916L79.8345 227.454L79.7213 227.765L80.0326 228.302L80.1458 228.67L80.0892 229.179L79.8911 229.151L79.6364 228.897L79.2685 228.755L78.7591 228.727L78.561 228.614L78.5327 227.765L78.7025 227.652L78.3629 227.114V226.322H78.2214L78.0516 227.114L77.5705 226.803L77.9101 227.595L77.995 227.991L77.712 228.274L77.3724 228.218L77.0045 227.991L76.5234 227.595L76.0423 227.425L75.5046 227.001L75.2216 226.435L75.4763 225.841L75.2216 225.813L74.9669 226.068L74.8537 226.322L74.4575 225.926L73.4953 225.389L73.3821 225.106L73.8632 225.36L73.6934 225.049L73.4104 224.908L72.7312 224.71L72.2501 224.144L72.052 223.917L71.4294 223.267L71.2879 223.154L69.0805 221.117L68.4296 220.183L68.2032 219.193L68.5428 219.363V218.91L67.524 218.288L67.241 217.807L67.1278 217.439L66.5335 216.421L67.0712 216.619L66.8731 216.053L66.1373 215.204L65.4864 213.365L65.26 212.262L65.1468 211.894L64.8355 211.272L64.7223 210.932L64.5808 210.338L64.2695 209.914L64.1846 209.546L64.2978 209.263L64.5808 209.15L64.9487 209.178L65.3166 209.291L65.5713 209.518L65.9958 210.112L66.2788 210.282L65.9109 209.348L66.5618 209.886L67.4674 210.48L68.5428 210.847L69.7314 211.498L70.1842 211.838L70.7502 211.922L71.1747 211.866L71.5426 211.894L72.3916 211.441L73.184 210.876L73.6368 210.734L74.0613 210.536L74.5141 210.395L74.9386 210.48L75.6744 210.338L76.3253 209.999L77.0894 208.895L77.4007 208.754L78.1931 209.461L78.7025 209.744L79.1836 209.97L79.8062 210.055L80.2024 209.829L80.8816 208.895L81.0797 208.81L81.9287 208.98L82.24 208.924L82.7211 208.499L83.3154 208.33L83.5701 208.188L83.6833 207.933L83.655 207.735L83.4286 207.368L83.372 207.113L83.5701 206.547L83.9946 206.378L84.9851 206.406L85.4096 206.293L85.4662 206.151L85.5228 205.529L85.636 205.302L86.0322 204.878L86.485 204.539L86.8529 204.425L89.9093 203.945L90.2772 203.747L90.2489 203.237L92.428 203.435L93.1072 204.227L93.2204 204.454L93.1638 204.737L92.7959 205.104L92.3431 205.189L92.0318 205.84L91.2394 206.83L90.6734 207.255L90.164 207.735L89.8244 208.499L89.7112 209.574L89.5131 210.084L89.0886 210.282L88.9471 210.508L88.8056 210.989L88.6924 211.583V212.064L88.8622 212.601L89.1735 213.054L88.749 213.507L88.5226 214.016L88.466 214.355L87.9849 215.063L87.7302 215.883L87.7019 216.845L88.2396 217.552L88.5792 217.722L88.9188 217.75L89.1169 218.033L89.0037 218.486L89.2584 219.193L89.9942 219.136L91.9469 218.401L93.3902 219.306L93.5883 220.155L93.9562 220.947L94.6071 221.456L95.3712 221.796L95.6542 222.163Z" fill="#2249D1" stroke="white" stroke-width="0.8" stroke-linecap="round" stroke-linejoin="round"/>
<path d="M160.745 178.964L160.604 178.992L159.924 179.445L159.217 180.831L158.538 181.227L157.604 181.255L157.264 181.425L156.953 181.793L156.274 183.207L155.679 184.056L152.453 186.659L150.274 188.922L149.793 189.657L149.482 189.997L149.114 190.195L148.972 190.336L148.916 191.015L148.831 191.327L148.435 191.383L147.925 191.185L147.416 191.128L147.02 191.496L146.68 191.921L145.859 192.458L145.605 192.854L145.661 193.335L145.916 193.703L146.114 194.127L146.001 194.721L145.605 195.231L145.18 195.542L144.982 195.881L145.293 196.475L145.774 196.928L146.312 197.352L146.737 197.805L146.991 198.456L146.878 199.021L146.538 199.474L146.086 199.898L145.718 200.351L145.576 200.86L145.689 201.794L145.718 202.303L145.548 202.812L145.039 203.831L144.897 204.397L144.925 204.708L145.123 205.274L145.152 205.528L144.529 208.753L144.359 209.036L143.567 209.319L143.312 209.574L142.859 210.281L142.718 210.592L142.378 211.639L142.152 212.092L141.812 212.601L140.878 214.072L140.737 214.496L140.086 214.949L139.888 215.317L139.973 215.826L140.114 216.505L139.718 216.873L139.492 216.646L139.294 216.618L139.096 216.703L138.643 217.156L138.303 218.004L138.247 218.457L138.388 218.825V219.023L138.19 219.39L137.907 219.504L137.256 219.362L136.917 219.39L136.747 219.334L137.058 218.711L137.115 218.457L136.803 218.429L136.351 218.655L136.039 218.711L135.332 218.457L135.303 217.806L135.53 216.958L135.643 216.137H135.501L135.332 216.929L134.822 217.354L134.143 217.297L133.521 216.759L133.719 216.42L133.521 216.392L133.068 216.137L133.153 215.798L132.983 215.543L132.332 215.062L131.738 214.723L131.596 214.327L131.341 213.817L131.172 213.619L130.634 213.421L130.351 213.167L129.983 212.714L129.841 212.855L131.143 214.1L131.455 214.496L132.049 215.628L132.162 216.165L131.766 216.42L132.162 217.127L132.417 217.438L132.756 217.665L132.473 217.608L131.568 216.929L128.823 214.044L127.974 212.855L127.323 211.667L127.011 210.366L127.181 207.48L126.785 207.028L125.738 206.349L125.144 206.207L123.757 206.434L123.276 206.066L123.021 205.641L122.625 204.623L123.276 203.887L124.408 204.085L124.691 203.265L123.559 201.087L123.021 198.597L123.219 197.267L122.823 196.192L122.908 195.598L123.134 195.033L123.502 194.608L123.814 194.127L123.729 193.59L123.757 193.024L124.097 192.713L124.917 191.411L125.229 190.365L124.832 189.629L125.115 189.035L126.078 188.724L126.955 188.978L127.408 190.053L128.002 190.025L128.455 189.601L129.53 189.092L129.898 188.639L130.209 188.13H130.832L131.511 188.441L131.907 187.819L132.332 186.036L132.785 185.329L133.322 184.622L134.653 183.292L134.851 181.68L134.398 180.972L134.568 180.18L136.039 179.36L135.954 178.596L135.473 177.973L135.219 177.323L135.105 176.587L134.709 176.135L134.624 175.88L134.454 175.654L133.832 175.201L132.926 174.154L132.587 172.853L133.351 172.768L134.058 172.4L134.709 171.693L135.388 171.184H136.322L137.256 171.354L138.303 171.325L139.294 171.071L140.086 170.646L140.482 169.967L140.256 169.062L140.567 168.298L142.095 167.732L143.708 167.874L145.406 168.468L148.236 170.137L148.802 171.354L148.576 172.768L149.029 173.164L149.68 173.306L151.01 173.277L154.717 172.57L156.811 173.645L159.613 176.955L160.292 178.2L160.745 178.964Z" fill="#2249D1" stroke="white" stroke-width="0.8" stroke-linecap="round" stroke-linejoin="round"/>
<path d="M92.8811 195.401L92.2868 198.145L91.8057 199.22L91.6076 200.38L91.3246 200.945L90.8718 201.426L90.3058 201.681L89.8247 202.19L90.2492 203.237L90.2775 203.746L89.9096 203.944L86.8532 204.425L86.4853 204.538L86.0325 204.878L85.6363 205.302L85.5231 205.528L85.4665 206.151L85.4099 206.292L84.9854 206.405L83.9949 206.377L83.5704 206.547L83.3723 207.113L83.4289 207.367L83.6553 207.735L83.6836 207.933L83.5704 208.188L83.3157 208.329L82.7214 208.499L82.2403 208.923L81.929 208.98L81.08 208.81L80.8819 208.895L80.2027 209.829L79.8065 210.055L79.1839 209.97L78.7028 209.744L78.1934 209.461L77.401 208.754L77.0897 208.895L76.3256 209.998L75.6747 210.338L74.9389 210.479L74.5144 210.394L74.0616 210.536L73.6371 210.734L73.1843 210.875L72.3919 211.441L71.5429 211.894L71.175 211.865L70.7505 211.922L70.1845 211.837L69.7317 211.498L68.5431 210.847L67.4677 210.479L66.5621 209.885L65.9112 209.348L65.798 208.98L66.2791 209.036L66.7602 209.15L66.5904 208.867L65.9395 208.159L65.7131 208.018L65.6282 208.131V208.555L65.5433 208.64L65.1754 208.697L64.8075 208.81L64.5245 208.669L63.9585 208.782L63.7038 208.64L63.6472 208.471L63.7038 207.594L63.5906 206.519L63.1095 204.397L63.2227 204.086L63.7887 203.944L65.3452 203.916L65.798 203.803L65.9112 204.171L66.1093 204.453L66.3074 204.312L66.4772 203.944L66.7319 203.69L67.5526 203.378L67.9488 203.322H68.3167L68.5148 203.18L67.9488 202.699L67.7224 202.332L67.6092 201.624L67.6658 201.257L67.8073 200.974L68.1186 200.776L68.4865 200.691L69.2506 200.719L69.5336 200.578L69.8166 200.266L70.1562 199.729L69.7883 199.899L69.4487 200.182L69.1374 200.351L68.6846 200.238L68.3733 200.578L67.8356 200.436L67.2696 200.719L66.93 201.257L67.0715 201.851L66.8168 202.445L66.5055 202.784L66.1093 202.869L65.6282 202.671L65.3452 202.247L65.0622 202.19L64.949 202.332L65.0056 202.643L65.3169 203.152L63.9302 203.095L61.2983 202.19L60.987 201.681L60.2229 201.002L59.7418 200.662L59.572 200.153L59.5154 199.644L59.6003 199.418L59.7418 199.333L60.138 198.908L60.5059 198.739L62.8265 198.824L63.6755 198.993L64.1849 199.248H64.3264L64.5811 198.937L64.949 198.088L65.1471 197.805L65.4584 197.664L65.8263 197.692L66.1659 197.777L66.4206 197.975L66.6753 198.767L67.0432 198.682L67.0715 198.286L66.9017 197.918L66.5055 197.522L66.0244 197.183L65.6282 196.985L65.1754 197.013L64.949 197.239L64.666 197.975L64.4113 198.201L64.0151 198.371L63.5906 198.484L63.2227 198.456L62.7699 198.201L62.5718 197.862V197.466L63.0246 196.164L63.0812 195.825L63.0246 195.372H62.8831L62.2605 197.155L62.0058 197.607L61.6945 197.918L61.27 198.088L60.7323 198.116L60.4776 198.201L59.9116 198.512L59.3173 198.739L58.8645 198.456L58.4966 198.116L58.1287 197.664L57.8457 197.183L57.6193 196.504L57.1665 195.74L57.0816 195.202L57.1382 194.722L57.2797 194.184L57.5061 193.76L57.7891 193.562L58.0721 193.675L58.5532 194.043L58.723 194.099L58.8362 193.929L58.6947 193.477L58.723 193.25L59.4588 192.6L61.3832 191.893L61.9209 190.987L61.4398 191.072L60.6191 191.808L59.7135 192.091L57.9023 193.024L57.5627 193.279L56.3741 194.382L56.1477 194.354L55.2704 192.43L55.1572 192.289L57.7891 185.867L59.4588 186.659L60.5625 187.932L60.3361 189.516L60.5342 190.733L61.0153 191.1L61.4115 190.931L62.7699 189.742L62.6567 188.979L62.8831 188.385L64.4113 188.469L65.1188 188.356L65.9961 188.413L66.9017 189.063L67.5809 189.29L67.8073 189.092L67.9488 188.781L69.2506 187.96L70.6939 187.904L73.439 189.403L74.7408 190.817L75.5332 191.242L76.1841 191.751L76.0709 192.6L75.5898 193.448L75.6747 193.703L75.9577 193.929L76.0709 194.212L75.986 194.495L76.0143 194.863L76.4105 195.004L76.835 194.976L79.1273 194.495L80.3442 193.618L81.3064 192.487L82.6082 191.496L83.5987 190.365L83.8817 189.46L83.8534 188.526L83.5421 188.271L83.1176 188.158L81.7026 186.857L80.9951 185.669L80.7121 184.735L80.6272 183.943L79.8631 182.613L79.948 181.765L80.2876 181.086L80.8253 180.576L81.646 180.661L82.2403 181.284L82.7214 182.047H83.3723L84.3345 180.831L84.9571 180.435L87.1928 179.501L90.0511 177.776L91.4944 177.182L92.3151 177.153L93.1641 177.295L93.815 177.068L94.5508 176.191V176.927L94.664 177.634L95.3149 179.954L95.4564 181.255L95.8809 182.415L95.9658 183.321L96.079 183.66L96.3903 184.254L96.5035 184.565L96.5318 184.905L96.4752 185.952L96.362 186.263L96.2205 186.461L95.6545 186.687L95.2017 187.055L95.0885 187.592L95.1734 188.837L94.8621 190.054L94.8904 190.676L94.7489 191.1L93.815 192.345L93.3622 193.166L93.1358 193.76L92.966 194.41L92.8811 195.401Z" fill="#2249D1" stroke="white" stroke-width="0.8" stroke-linecap="round" stroke-linejoin="round"/>
<path d="M94.5504 176.192L93.8146 177.069L93.1637 177.295L92.3147 177.153L91.494 177.182L90.0507 177.776L87.1924 179.502L84.9567 180.435L84.3341 180.831L83.3719 182.048H82.721L82.2399 181.284L81.6456 180.661L80.8249 180.577L80.2872 181.086L79.9476 181.765L79.8627 182.614L80.6268 183.943L80.7117 184.735L80.9947 185.669L81.7022 186.857L83.1172 188.158L83.5417 188.272L83.853 188.526L83.8813 189.46L83.5983 190.365L82.6078 191.497L81.306 192.487L80.3438 193.618L79.1269 194.495L76.8346 194.976L76.4101 195.005L76.0139 194.863L75.9856 194.495L76.0705 194.213L75.9573 193.93L75.6743 193.703L75.5894 193.449L76.0705 192.6L76.1837 191.751L75.5328 191.242L74.7404 190.818L73.4386 189.403L70.6935 187.904L69.2502 187.96L67.9484 188.781L67.8069 189.092L67.5805 189.29L66.9013 189.064L65.9957 188.413L65.1184 188.356L64.4109 188.47L62.8827 188.385L62.6563 188.979L62.7695 189.743L61.4111 190.931L61.0149 191.101L60.5338 190.733L60.3357 189.516L60.5621 187.932L59.4584 186.659L57.7887 185.867L57.817 185.103L57.3642 184.424L56.8265 184.113L56.3171 184.028L56.2605 183.717L55.7794 183.123L55.2134 182.642L54.7323 182.359L54.5908 182.133L54.9304 181.482L55.0436 180.803L55.3832 180.294L55.8926 180.124L56.4869 179.813L56.8265 179.219L56.9963 178.511L57.3925 177.917L57.9302 176.673L57.5057 175.428L57.1095 174.777L56.9114 174.692L56.7982 174.494V173.759L56.8831 173.419L56.968 172.655L57.251 172.146L57.9585 171.241L58.8075 170.42L59.1188 169.798L59.4867 169.289V168.666L59.7697 168.355L60.1659 168.185H66.7598L67.8352 169.034L67.439 169.628L67.2126 170.307L67.8352 171.863L68.3446 171.778L69.5049 170.845L70.1841 170.901L70.4954 171.184L71.2312 171.354L71.6274 171.213L71.8821 171.043L72.2217 170.477L72.3349 170.138L72.6179 168.638L72.8443 168.044L73.382 167.903L73.3537 167.535L73.665 167.11L73.5801 166.828L73.2405 166.12L73.2971 165.272L73.6084 164.423L74.231 163.772L74.5423 163.348L74.6838 162.782L75.7592 160.292L75.7026 160.066L75.7309 159.755L76.2403 159.161L76.8063 158.652L77.2025 158.397L77.5138 158.058L77.7402 157.294L77.6553 156.756L77.5138 156.417L77.4289 155.681L77.6836 155.172L77.5704 154.748L76.8629 154.295L77.0893 153.475L77.4006 153.192L78.0515 153.05L78.3345 152.909L78.8722 152.258L79.2967 151.551L79.6929 151.749L80.174 151.664L80.5702 151.919L80.4853 152.371L81.2494 152.626L81.4192 153.163L81.1645 154.21L81.7588 155.03L82.8342 155.002L83.9096 154.55L84.3907 154.267L84.8435 154.153L85.0982 154.578L85.4378 154.861L86.2302 155.398L86.8811 156.162L87.4471 156.19L88.3244 155.964L88.8055 156.021L89.3998 156.558L89.9375 157.888L90.2488 158.312L90.362 158.765L90.6733 159.217L91.8336 158.991L92.7958 158.595L93.4184 158.538L93.7863 158.821L94.041 159.133L94.0976 159.557L94.4089 159.727L95.0315 159.925L95.0881 160.123L95.456 160.943L95.5692 161.622L95.456 162.046L95.173 162.923L95.0598 164.168L94.8617 164.706L94.8334 164.96L94.8617 166.007L94.8051 166.205L94.1825 167.535L93.9278 168.468L93.8995 168.864L94.041 170.109L93.9561 173.136L94.041 174.155L94.5221 175.484L94.5504 176.192Z" fill="#2249D1" stroke="white" stroke-width="0.8" stroke-linecap="round" stroke-linejoin="round"/>
<path d="M114.729 189.488L114.757 190.874L114.559 192.402L115.946 193.109L119.37 193.137L120.644 193.732L120.814 194.552L121.21 195.288L121.974 195.882L122.823 196.193L123.219 197.268L123.021 198.597L123.559 201.087L124.691 203.265L124.408 204.086L123.276 203.888L122.059 202.926L120.729 202.19L119.936 200.946L118.776 200.125L117.87 199.984L117.248 200.436L117.389 202.049L116.823 203.35L116.795 203.661L117.361 203.831L117.616 204.284L117.474 204.736L116.795 205.189L115.578 205.019L114.531 205.302L114.503 205.783L114.729 206.208L114.786 206.66L114.446 208.16L114.361 209.178L114.503 210.281L114.361 211.328L113.597 212.092L113.059 212.941L113.371 214.101L113.229 214.525L113.173 214.921L113.682 215.855L113.852 216.845L112.267 215.77L111.022 215.741L110.144 215.374L109.211 215.402L107.286 215.798L106.324 215.515L106.013 213.676L108.446 209.942L108.56 208.782L108.079 207.905L109.805 202.926L110.71 201.936L110.993 201.342L111.192 200.719L111.531 200.238L111.701 199.673V199.022L111.588 198.371V197.721L111.418 197.126L111.163 196.674L111.361 196.334L111.616 195.259L111.305 192.6L110.399 191.78L109.748 191.638L108.56 191.044L108.05 190.591L109.154 189.205L110.739 188.356L110.937 188.554L112.069 188.385L113.201 188.328L114.729 189.488Z" fill="#018796" stroke="white" stroke-width="0.8" stroke-linecap="round" stroke-linejoin="round"/>
<path d="M108.078 207.905L107.399 208.103L106.635 208.217L105.39 207.849L102.447 208.132L99.1072 207.905L96.6451 206.293L96.4753 205.982L95.9093 205.557L95.6829 205.303L95.6546 204.482L95.9942 203.718L96.1923 202.049L95.2301 201.031L94.3528 201.229L93.5321 201.172L93.3623 200.635L94.0981 196.929L94.3811 196.108L95.9376 194.835L97.7771 194.326L98.7959 194.75L99.7298 194.496L100.635 192.6L100.947 191.582L101.852 191.044L102.899 190.79L103.975 190.677L106.126 191.129L107.088 190.818L108.05 190.592L108.559 191.044L109.748 191.639L110.399 191.78L111.305 192.6L111.616 195.26L111.361 196.335L111.163 196.674L111.418 197.127L111.588 197.721V198.372L111.701 199.022V199.673L111.531 200.239L111.191 200.72L110.993 201.342L110.71 201.936L109.805 202.926L108.078 207.905Z" fill="#018796" stroke="white" stroke-width="0.8" stroke-linecap="round" stroke-linejoin="round"/>
<path d="M110.738 188.356L109.153 189.205L108.05 190.591L107.087 190.817L106.125 191.128L103.974 190.676L102.899 190.789L101.852 191.044L100.946 191.581L100.635 192.6L99.7295 194.495L98.7956 194.75L97.7768 194.325L95.9373 194.835L94.3808 196.108L93.5884 196.051L92.8809 195.4L92.9658 194.41L93.1356 193.759L93.362 193.165L93.8148 192.345L94.7487 191.1L94.8902 190.676L94.8619 190.053L95.1732 188.837L95.0883 187.592L95.2015 187.055L95.6543 186.687L96.2203 186.461L96.3618 186.263L96.475 185.951L96.5316 184.905L96.5033 184.565L96.3901 184.254L96.0788 183.66L95.9656 183.32L95.8807 182.415L95.4562 181.255L95.3147 179.954L94.6638 177.634L94.5506 176.927V176.191L94.777 176.135L95.2864 176.163L95.909 176.304L96.5033 176.191L97.2957 175.427L97.8051 173.108L98.3711 171.976L99.9559 170.477L100.154 171.127L100.126 171.891L100.437 172.033L101.71 171.976L103.069 172.57L103.805 172.712L104.54 173.023L104.427 174.635L103.125 176.05L102.475 177.832L102.701 178.426L103.041 178.596L103.833 178.737L104.173 178.935L104.654 179.586L105.616 181.764L105.305 182.047V182.5L105.163 183.207L105.361 183.49L105.729 183.405L106.069 183.151L106.437 183.405L106.55 183.971L107.116 184.395L106.974 185.216L107.257 185.895L107.653 186.545L107.908 187.281L108.418 187.875L109.068 187.988L109.691 187.79L109.946 187.819L110.37 188.073L110.483 188.328L110.738 188.356Z" fill="#018796" stroke="white" stroke-width="0.8" stroke-linecap="round" stroke-linejoin="round"/>
<path d="M113.795 163.376L114.021 164.338L114.927 166.233L115.578 167.054L116.37 167.789L117.247 168.44L118.153 168.864L119.087 168.751L119.794 168.214L120.643 167.987L121.606 168.468L122.2 169.43L122.455 170.562V171.722L121.662 173.928L120.077 174.098L119.285 174.013L118.549 174.494L119.483 177.521L119.455 179.19L118.436 182.359L118.86 182.981L118.889 183.292L119.143 184.283L119.2 185.018L119.37 185.754L119.426 186.461L118.945 187.168L118.379 187.819L118.21 189.007L118.493 190.224L117.842 190.563L117.021 189.771L116.512 189.431L115.917 189.12L114.729 189.488L113.2 188.328L112.068 188.385L110.936 188.554L110.738 188.356L110.484 188.328L110.37 188.074L109.946 187.819L109.691 187.791L109.069 187.989L108.418 187.875L107.908 187.281L107.654 186.546L107.257 185.895L106.974 185.216L107.116 184.396L106.55 183.971L106.437 183.406L106.069 183.151L105.729 183.406L105.361 183.49L105.163 183.208L105.305 182.5V182.048L105.616 181.765L104.654 179.586L104.173 178.936L103.833 178.738L103.041 178.596L102.701 178.427L102.475 177.832L103.126 176.05L104.427 174.636L104.541 173.023L103.805 172.712L103.069 172.57L101.711 171.976L100.437 172.033L100.126 171.891L100.154 171.128L99.9561 170.477L100.579 169.204L101.371 168.695L101.541 169.459L101.711 169.6L102.079 170.137L102.673 170.42L103.692 169.6L104.597 168.525L106.55 167.139L107.739 166.064L109.069 164.281L109.521 163.885L110.257 163.631L110.993 163.037L111.87 162.584L113.002 162.669L113.795 163.376Z" fill="#018796" stroke="white" stroke-width="0.8" stroke-linecap="round" stroke-linejoin="round"/>
<path d="M132.586 172.854L132.925 174.155L133.831 175.202L134.454 175.654L134.623 175.881L134.708 176.135L135.104 176.588L135.218 177.323L135.472 177.974L135.953 178.596L136.038 179.36L134.567 180.181L134.397 180.973L134.85 181.68L134.652 183.293L133.322 184.622L132.784 185.33L132.331 186.037L131.906 187.819L131.51 188.441L130.831 188.13H130.208L129.897 188.64L129.529 189.092L128.454 189.601L128.001 190.026L127.407 190.054L126.954 188.979L126.077 188.724L125.115 189.036L124.832 189.63L125.228 190.365L124.916 191.412L124.096 192.713L123.756 193.025L123.728 193.59L123.813 194.128L123.501 194.609L123.133 195.033L122.907 195.599L122.822 196.193L121.973 195.882L121.209 195.288L120.813 194.552L120.643 193.732L119.37 193.138L115.945 193.109L114.559 192.402L114.757 190.874L114.728 189.488L115.917 189.12L116.511 189.432L117.021 189.771L117.841 190.563L118.492 190.224L118.209 189.007L118.379 187.819L118.945 187.168L119.426 186.461L119.37 185.754L119.2 185.018L119.143 184.283L118.888 183.293L118.86 182.981L118.436 182.359L119.454 179.191L119.483 177.521L118.549 174.494L119.285 174.013L120.077 174.098L121.662 173.929L122.426 175.569L124.039 176.56L125.086 175.145L125.313 173.165L125.681 172.373L126.671 172.231H127.605L128.51 172.005L129.388 170.845L129.925 170.732H130.463L130.718 170.364L130.831 170.109L131.312 170.138L131.567 170.534L131.737 171.439L132.048 172.231L132.586 172.854Z" fill="#018796" stroke="white" stroke-width="0.8" stroke-linecap="round" stroke-linejoin="round"/>
<path d="M143.17 80.5706L142.915 82.1266L142.095 83.5694L142.434 84.1918L143.142 84.5878L143.679 85.0971L144.189 85.6912L143.962 86.3701L143.849 87.1623L143.283 87.9261L142.434 88.3222L141.246 89.6518L140.821 91.4341L141.444 93.2447L140.51 96.3849V98.2238L140.368 99.1573L140.566 99.9495L139.604 101.307V101.703L139.548 102.128L138.868 102.637V106.032L139.831 107.446L140.934 108.606L141.84 109.879L141.727 111.35L141.246 112.708L140.368 113.727L139.774 115.141L139.01 116.471L138.019 117.489L137.086 117.603L136.52 117.037L136.208 116.499L135.755 116.047L134.793 114.802L132.671 114.236L131.907 113.925L131.284 114.519L129.926 116.443L128.058 117.461L127.464 115.17L127.209 112.369L126.275 111.803L125.511 111.209L125.539 110.587L125.313 110.049L124.549 109.342L123.105 109.568L122.2 111.237L121.379 111.605L120.587 111.266L119.794 111.209L119.228 110.728L118.464 110.785L117.898 110.502L117.559 109.851L116.908 110.162L116.144 110.332L115.719 109.512L114.87 109.2L114.134 110.247L113.625 110.615L113.031 110.36L112.38 110.275L111.729 110.247L109.493 110.502L108.927 110.36L108.333 110.53L108.191 110.162L108.446 109.427L108.503 109.087L108.106 108.578L107.795 108.38L107.314 107.644L107.512 106.767L108.786 105.834L108.927 105.381L109.012 104.9L109.238 104.504L109.578 104.193L110.116 103.599L109.974 102.835L109.267 102.467L108.927 101.873L109.125 101.223L108.616 100.798L107.767 100.544L107.286 99.8929L107.795 99.4968L108.531 99.4402L109.153 98.931L109.182 98.054L108.729 94.2348L107.597 93.4427L104.116 93.4993L102.361 93.3012L100.692 92.5657L99.6164 91.1795L100.182 90.5288L100.975 90.0196L101.597 89.2557L102.361 88.6333L103.126 88.1241L103.692 87.3886L103.748 86.5682L103.041 86.0872L101.371 85.4648L100.862 84.9273L101.173 84.0786L101.145 82.1549L99.8428 81.0515L99.0221 81.3062L98.6259 81.193L98.4844 79.2693L98.2863 78.7883L97.5505 78.5054L96.7015 78.4488L95.9374 78.76L96.0506 79.7219L95.5129 80.0897L94.6073 79.9482L93.73 80.118L92.0037 80.9101L91.2679 80.7686L90.9566 80.0331L90.334 79.6087L88.6643 79.9765L85.8626 82.1549L84.6457 83.4845L84.1363 84.2766L83.542 84.9556L82.7213 85.0688L82.3251 84.2483L81.7308 83.5411L80.9667 82.9753L80.8252 82.1549L80.9101 81.6739L81.0516 81.391L81.1082 80.4292L81.1648 80.1463L81.5044 79.3258L81.6176 78.7883L81.5893 78.2225L81.1931 77.006L81.1648 76.4119L81.3063 74.4033L81.5044 73.8092L81.9572 73.2717L82.4383 73.0454L83.5137 72.6776L83.8533 72.3664L83.9665 72.0552L83.9948 71.4329L84.1929 71.1217L84.4193 70.9519L84.9853 70.7539L85.24 70.5841L85.523 70.2164L85.9475 69.3394L86.2305 68.9716L86.6833 68.8019L87.1927 68.8584L88.7492 69.4242L89.2586 69.5374H89.7963L91.3245 69.0848H91.9754L94.3809 68.1795L94.7771 67.9249L95.145 67.6137L95.4563 67.2176L95.6827 66.6801L96.1355 64.53L96.3902 63.7945L96.8713 63.2004L98.541 62.1536L98.9938 61.6727L99.39 60.9654L100.465 61.503L101.031 61.6444L102.277 61.6727L102.786 62.0405L103.069 62.6063L102.984 63.0589L102.616 63.3418L101.965 64.0491L101.994 64.7281L103.72 65.1807L104.541 65.6899L105.786 66.963L106.55 67.0761L107.342 66.6518L107.908 66.0294L107.88 65.3221L107.484 64.7281L107.88 63.4267L109.663 63.455L110.512 63.7662L111.163 63.3984L111.276 62.5497L111.672 61.7859L113.144 60.9089L114.87 61.2483L115.776 61.6444L116.596 62.2385L117.049 62.8609L117.728 63.1721L119.624 62.38L120.445 61.1352L122.058 60.9937L124.832 58.9285L128.143 57.8535L128.963 58.2496L128.935 59.1549L128.511 59.947L128.397 60.7957L128.879 61.5878L129.643 62.0971L131.284 62.6912L132.048 63.3135L132.642 64.1057L134.284 64.7281L136.067 65.209L138.472 67.7834L138.925 71.1217L138.472 72.9605L138.84 75.8178L138.501 76.7231L137.51 76.9777L137.029 77.6284L138.302 78.7317L140.199 78.9581L141.246 80.2028L141.698 80.4292L142.661 80.6838L143.17 80.5706Z" fill="#6D769D" stroke="white" stroke-width="0.8" stroke-linecap="round" stroke-linejoin="round"/>
<path d="M187.148 33.6088L184.035 35.7022L182.79 35.391L182.054 34.9101L180.3 35.2213L179.564 35.5042L179.026 36.0134L178.687 37.0602L178.46 38.1352L176.762 42.9163L176.621 43.7084L176.819 44.6985L176.451 45.519L169.263 48.2631L168.499 48.7723L167.706 49.1401L165.725 49.3099L164.452 50.4415L163.971 52.2238L164.961 52.9027L166.404 52.5067L167.253 52.3935L168.046 52.5915L168.414 53.3837L168.782 55.1094L168.81 55.9298L168.017 57.4009L167.933 58.193L168.385 58.8437H169.149L169.574 58.7022L170.536 60.4279L172.8 63.455L174.526 64.134L178.262 64.8412L180.271 64.9261L181.969 65.4919L181.856 66.284L181.29 66.9347L180.498 67.4439L177.894 68.4624L177.385 70.0749L177.668 70.9519L177.017 71.348L176.111 71.0085L175.291 70.5842L171.583 70.8671L170.225 70.3013L169.687 68.9716L169.885 67.4439V65.888L169.348 64.4452L168.329 63.4833L166.97 63.8228L163.942 64.0491L162.754 63.6247L161.82 62.4366L160.348 62.6629L158.848 62.578L157.377 61.9556L155.99 61.5596L154.547 61.5313L154.603 61.2201L154.575 60.5694L154.603 60.2582L154.83 59.5227L155.198 58.872L157.292 56.9765L157.49 56.439L156.98 56.0995L156.669 56.0147L156.131 55.6752L155.481 54.9679L155.141 54.4587L154.603 53.1008L154.349 52.9027L153.698 52.8179L152.679 52.9027L152.311 52.5632L152.622 51.0921L153.471 49.8474L153.698 49.2816L153.783 48.6875L154.066 47.9519L154.122 47.1315L153.783 45.6887L153.528 44.9814L152.424 44.8683L151.603 45.4341H150.132L150.104 44.8117L149.934 44.2459L149.764 44.161L148.773 44.3025L148.236 44.5005L147.755 44.2459L147.443 43.7084L147.641 43.3406L147.868 43.0011L148.009 42.6051L147.981 40.3701L146.991 39.1536L145.519 38.9839L144.189 38.5313L143.991 37.7957L144.019 36.9753L143.736 36.2963L143.142 35.9003L142.519 35.5608L141.953 35.1364L141.755 34.2877L141.783 33.3541L141.67 32.7318L141.104 32.4771L139.576 32.0811L138.189 31.883L136.803 32.1377L135.614 32.76L134.906 33.8351L134.51 35.0233L134.227 35.4759L133.803 35.2213L133.718 34.8818V34.5423L133.548 34.118L132.359 31.9962L132.076 31.2607L131.567 30.7231L129.699 30.6666L128.454 29.9027L128.426 28.3468L128.624 26.7342L128.935 26.1118L131.454 25.7158L133.152 25.6875L134.68 25.8855L138.302 25.7158L138.755 26.1401L139.18 27.3849L139.802 28.4882L140.368 28.8277L140.934 29.054L141.472 29.0257L142.236 28.6014L142.519 28.9691L142.859 29.2803L143.793 29.3652L145.066 29.0823L146.198 28.4599L147.245 27.6395L147.5 27.2151L147.67 26.7625L147.896 26.423L148.179 26.1684L148.575 25.9704L148.717 25.3763L155.594 26.1967H156.471L157.716 25.8289L158.141 25.8006L163.15 26.3947L163.631 26.3664L164.055 26.1118L164.508 25.6875L165.131 25.8572L167.367 26.6211L169.432 25.7158L169.8 25.1217L170.055 24.471L170.48 24.1598L172.121 23.4525L173.253 23.1696L175.489 22.2643L176.536 21.9814L177.526 22.2926L178.121 23.2262L178.743 25.6309L178.97 26.2533L179.988 26.3947L181.545 25.9421L182.309 26.027L183.158 26.423L184.035 26.6211L184.828 26.5928L185.479 27.0737L186.214 28.6297L186.639 32.0528L187.148 33.6088Z" fill="#6D769D" stroke="white" stroke-width="0.8" stroke-linecap="round" stroke-linejoin="round"/>
<path d="M148.716 25.3768L148.575 25.9709L148.179 26.1689L147.896 26.4235L147.669 26.763L147.5 27.2156L147.245 27.64L146.198 28.4604L145.066 29.0828L143.792 29.3657L142.858 29.2808L142.519 28.9696L142.236 28.6019L141.472 29.0262L140.934 29.0545L140.368 28.8282L139.802 28.4887L139.179 27.3854L138.755 26.1406L138.302 25.7162L134.68 25.886L133.151 25.688L131.453 25.7162L128.935 26.1123L128.623 26.7347L128.425 28.3472L128.454 29.9032L129.699 30.667L131.567 30.7236L132.076 31.2611L132.359 31.9967H131.199L130.123 32.3362L129.557 33.3546L128.765 35.6744L127.916 36.4948L123.784 38.0508L121.973 39.3239L121.69 40.3989L121.916 42.747L121.775 47.7827L122.284 49.3386L122.397 50.1025L122.369 50.5551L122.228 51.0078L122.313 51.3755L122.539 51.6867L123.133 53.1861L123.218 54.1197L122.143 54.3743L120.841 55.0533L119.737 55.3362L119.001 56.2132L118.634 57.3731L118.464 58.533L118.832 59.7495L120.445 61.1357L119.624 62.3805L117.728 63.1726L117.049 62.8614L116.596 62.239L115.775 61.6449L114.87 61.2488L113.143 60.9094L111.672 61.7864L111.276 62.5502L111.162 63.3989L110.511 63.7667L109.662 63.4555L107.88 63.4272L107.483 64.7285L107.88 65.3226L107.908 66.0299L107.342 66.6523L106.549 67.0766L105.785 66.9635L104.54 65.6904L103.719 65.1812L101.993 64.7285L101.965 64.0496L102.616 63.3423L102.984 63.0594L103.069 62.6068L102.786 62.041L102.276 61.6732L101.031 61.6449L100.465 61.5035L99.3895 60.9659L99.7574 59.8909L99.9838 58.7876L99.8989 57.9389L100.04 57.1185L99.248 55.6474L100.125 51.3472L101.484 50.6966H103.238L103.719 51.036L104.116 50.838L105.106 50.0742L105.672 49.5084L105.785 48.7162L106.21 48.3202L106.946 48.5182L107.653 48.2353L107.398 46.8208L106.097 45.7458L105.304 45.378L104.823 44.7839L105.219 44.0483L105.729 42.6338L105.87 42.0114L105.729 41.2759L105.531 40.5969L105.389 39.3522L105.05 38.1357L104.399 36.8626L104.512 35.4198L104.002 34.2033L103.267 24.2452L103.663 21.7273L104.285 21.4444L105.417 20.4543L106.832 18.7568L107.37 18.672L109.804 19.1246H110.653L111.389 18.87L119.964 13.6929L120.756 13.3251L121.577 13.2402L127.548 14.0889L128.171 14.3436L128.454 14.5699L129.02 15.0791L129.642 15.5035L130.463 16.1258L130.803 16.2956L131.482 16.4653L131.821 16.6351L132.133 16.918L132.727 17.6252L135.076 19.7753L135.585 19.9733L136.208 19.6904L137.057 19.6338L137.708 19.7753L138.274 20.0299L139.293 20.822L139.745 21.3313L140.425 22.4629L140.849 22.9438L141.698 23.453L147.896 25.2919L148.716 25.3768Z" fill="#6D769D" stroke="white" stroke-width="0.8" stroke-linecap="round" stroke-linejoin="round"/>
<path d="M96.3901 17.3705L95.2015 18.3041L93.362 19.3791H91.0697L88.7774 18.8133L88.3812 18.4456L88.0133 17.9929L87.1643 17.7383L86.6549 17.6534H85.5512L85.2116 17.9646L85.0984 18.5587L85.0701 19.2094L84.7871 20.1996L84.2211 20.3693L83.2872 20.0015L81.5892 20.2279L80.0893 21.0483L79.8346 21.7272L80.2308 25.8576L79.5516 27.1873L78.7026 27.555L77.8253 27.8097L72.5049 28.3189L71.3163 29.2525L70.439 30.6953L69.2221 32.2512L68.0901 33.0151L67.9486 34.5993L68.4297 36.3816L68.5146 38.2488L67.3543 39.5218L60.1661 39.8047L56.6852 39.2389L55.8362 42.1245L55.6381 53.4124L55.1853 53.6953L54.6759 53.7518L54.4212 53.3841L54.0533 53.1577L53.5156 53.3275L53.1477 53.1295L52.6383 53.0163L52.1572 53.1295L47.6858 55.1664L46.8651 56.1848L45.818 56.8355L44.7709 56.4677L44.0068 55.619L44.2049 53.3275L45.252 51.0643L46.0444 47.3017L45.8746 38.0507L46.7236 36.5513L48.4216 36.127L50.0347 36.6362L51.0818 36.0987L51.1667 34.2881L50.4592 30.4124L50.5724 29.4788L50.7988 28.6018L50.9969 26.8478L50.4592 25.3484L49.6668 23.9905L49.8083 23.0003L50.063 22.095L50.2045 21.7555L50.3177 21.3878V20.9351L50.3743 20.4825L50.7422 19.7752L50.8271 19.0114L50.4026 18.5021L49.78 18.7002L49.3555 19.2943L48.9876 19.9167L48.2518 20.3693L47.3745 20.2844L46.5255 19.8884L45.7331 19.3226L44.9124 19.0397L44.0634 18.8133L42.4786 18.2192L41.007 17.3422L40.2995 16.6633L39.5637 16.0692L38.7147 16.2672L37.894 16.6633L36.3658 16.4087L34.5829 16.4652L34.3848 16.4935L34.4697 15.956L34.498 10.1565L36.0262 10.0999L36.7337 9.95848L37.4129 9.64729L41.0919 6.08271L42.1956 5.29058L43.4691 4.78136L50.9686 2.94249L51.7327 2.85762L52.2704 3.11223L52.7798 3.62146L53.3175 3.84778L54.7042 3.93265L57.0814 3.5083L60.4491 3.64975L61.2698 3.5083L61.5245 3.39513L62.2603 2.85762L62.5716 2.46156L62.9678 1.58456L63.2508 1.21678L63.9017 0.877299L67.3826 0.283203L68.1467 0.452945L81.476 5.77152L81.9854 6.08271L82.2401 6.02613L83.5985 5.26229L84.0513 5.14913L85.7493 5.5452L87.3058 6.45048L90.6169 9.59071L94.4657 13.8342L96.3901 17.3705Z" fill="#6D769D" stroke="white" stroke-width="0.8" stroke-linecap="round" stroke-linejoin="round"/>
<path d="M103.663 21.7268L103.267 24.2447L104.002 34.2028L104.512 35.4193L104.399 36.8621L105.049 38.1352L105.389 39.3517L105.531 40.5964L105.729 41.2754L105.87 42.011L105.729 42.6333L105.219 44.0478L104.823 44.7834L105.304 45.3775L106.097 45.7453L107.398 46.8203L107.653 48.2348L106.946 48.5177L106.21 48.3197L105.785 48.7157L105.672 49.5079L105.106 50.0737L104.116 50.8375L103.719 51.0355L103.238 50.6961H101.484L100.125 51.3467L99.248 55.6469L100.04 57.118L99.8989 57.9384L99.9838 58.7871L99.7574 59.8904L99.3895 60.9654L98.9933 61.6727L98.5405 62.1536L96.8708 63.2004L96.3897 63.7945L96.135 64.53L95.6822 66.6801L95.4558 67.2176L95.1445 67.6137L94.7766 67.9249L94.3804 68.1795L91.9749 69.0847H91.324L89.7958 69.5374H89.2581L88.7487 69.4242L87.1922 68.8584L86.6828 68.8018L86.23 68.9716L85.947 69.3394L85.5225 70.2164L85.2395 70.5841L84.9848 70.7539L84.4188 70.9519L84.1924 71.1217L83.9943 71.4328L83.966 72.0552L83.8528 72.3664L83.5132 72.6776L82.4378 73.0454L82.0699 71.4611L80.2587 68.4058L79.2682 67.0761L79.0701 63.4267L77.2589 60.5411L76.325 60.1733L75.8722 59.4378L76.4665 57.6272L76.5797 55.9864L75.476 54.9113L74.5987 54.6001L72.8441 54.2889L72.4479 54.4021L72.08 54.6001L68.5142 54.8547L67.0992 54.5435L65.0616 53.6665L64.722 52.9593L64.156 52.5066L62.8259 52.7047L62.2599 52.6764L61.7505 52.4218L61.2411 52.4501L60.8449 52.8744L60.6468 53.4402L60.2223 53.6948L59.6846 53.7231L58.4394 54.0343L57.9583 53.9212L57.5621 53.61L56.5999 53.2422L55.6377 53.4119L55.8358 42.1241L56.6848 39.2385L60.1657 39.8043L67.3539 39.5214L68.5142 38.2483L68.4293 36.3812L67.9482 34.5989L68.0897 33.0146L69.2217 32.2508L70.4386 30.6948L71.3159 29.252L72.5045 28.3185L77.8249 27.8092L78.7022 27.5546L79.5512 27.1868L80.2304 25.8572L79.8342 21.7268L80.0889 21.0479L81.5888 20.2274L83.2868 20.0011L84.2207 20.3689L84.7867 20.1991L85.0697 19.209L85.098 18.5583L85.2112 17.9642L85.5508 17.653H86.6545L87.1639 17.7379L88.0129 17.9925L88.3808 18.4451L88.777 18.8129L91.0693 19.3787H93.3616L95.2011 18.3037L96.3897 17.3701L96.9557 18.4451L98.3424 20.0577L99.2197 20.8498L99.9838 21.4439L100.691 21.6985L101.484 21.7834H103.238L103.663 21.7268Z" fill="#6D769D" stroke="white" stroke-width="0.8" stroke-linecap="round" stroke-linejoin="round"/>
<path d="M55.6378 53.4125L56.6 53.2428L57.5622 53.6105L57.9584 53.9217L58.4395 54.0349L59.6847 53.7237L60.2224 53.6954L60.6469 53.4408L60.845 52.875L61.2412 52.4506L61.7506 52.4224L62.26 52.677L62.826 52.7053L64.1561 52.5072L64.7221 52.9599L65.0617 53.6671L67.0993 54.5441L68.5143 54.8553L72.0801 54.6007L72.448 54.4027L72.8442 54.2895L74.5988 54.6007L75.4761 54.9119L76.5798 55.9869L76.4666 57.6278L75.8723 59.4383L76.3251 60.1739L77.259 60.5417L79.0702 63.4273L79.2683 67.0767L78.5325 66.6241L77.7118 66.6524L77.3722 66.9353L76.7779 67.6142L76.5232 67.982L75.9289 68.4629L75.1082 68.5478L74.2875 68.7741L70.2123 70.4998L68.6558 70.7827H66.3069L65.6843 70.5564L65.373 69.7077L65.3447 68.7741L65.4862 66.9353L65.1183 66.1431L64.3542 65.6622L63.5052 64.1345L63.1939 62.3239L61.8072 61.4752L60.0809 61.4469L53.1191 62.8615L49.8929 64.3043L49.525 65.8319L50.9966 66.9636L52.6946 67.6708L54.5058 67.9537H54.902L55.2133 68.1517L55.4114 68.5761L55.7227 68.7458L56.3736 68.9439L56.6566 69.6511L56.883 70.613L56.9396 71.5749L55.8076 73.0177L56.7698 74.2342L57.2792 75.8184L56.6566 76.2994L54.9869 76.7803L53.4021 77.5441L51.7607 77.3178L51.0249 77.6007L50.6287 79.185L50.7419 80.9955L50.6287 81.816L50.7702 82.6081L51.8739 84.0792L52.6097 85.6917L52.0154 87.276L51.3362 87.7569L50.5438 88.0398L47.7987 88.6056L46.978 88.8885L46.7233 89.7372V90.6991L46.412 91.3215L44.8272 91.2366L44.2612 90.7274L44.6008 88.9734L44.7423 87.2194L44.2612 86.6819L43.6386 86.201L43.2707 85.3805L43.1858 84.4752L43.3273 82.6929L44.2329 81.1653L46.9497 79.6093L47.0063 79.185L47.6006 78.5626L47.7704 78.2514L47.827 77.827L47.7987 76.9217L48.5911 72.6499L48.5628 72.0558L47.0346 71.6032L44.1763 69.7077L41.7991 69.0853L39.3653 69.4248L32.9129 69.5946L31.6677 69.4531L29.0358 68.2366L26.9416 66.9353L24.7908 66.6807L24.621 66.8504L24.1682 66.8787L23.6022 66.3129L19.3855 60.3436L19.0459 59.693L18.9893 59.1271L19.6119 57.4863L19.8949 56.383L21.5363 53.5822L22.0457 53.0447L23.2626 52.3092L23.5456 52.0263L23.7154 51.5171L23.6022 51.0361L23.3192 50.5835L22.7532 49.9894L22.5834 49.8479L22.357 49.367L22.2155 48.0091L22.3287 47.613L22.5834 47.2452L23.0079 46.8492L23.4041 46.0287L23.2909 45.2083L22.6966 43.4543L22.7249 42.4076L23.3475 39.2391L23.1211 33.2415L23.206 32.9869L28.3566 29.0829L29.8848 27.6401L33.6487 21.6991L34.3845 16.4937L34.5826 16.4654L36.3655 16.4088L37.8937 16.6634L38.7144 16.2674L39.5634 16.0693L40.2992 16.6634L41.0067 17.3424L42.4783 18.2194L44.0631 18.8135L44.9121 19.0398L45.7328 19.3227L46.5252 19.8885L47.3742 20.2846L48.2515 20.3695L48.9873 19.9168L49.3552 19.2944L49.7797 18.7003L50.4023 18.5023L50.8268 19.0115L50.7419 19.7754L50.374 20.4826L50.3174 20.9353V21.3879L50.2042 21.7557L50.0627 22.0952L49.808 23.0005L49.6665 23.9906L50.4589 25.3485L50.9966 26.8479L50.7985 28.6019L50.5721 29.4789L50.4589 30.4125L51.1664 34.2883L51.0815 36.0989L50.0344 36.6364L48.4213 36.1271L46.7233 36.5515L45.8743 38.0509L46.0441 47.3018L45.2517 51.0644L44.2046 53.3276L44.0065 55.6192L44.7706 56.4679L45.8177 56.8356L46.8648 56.185L47.6855 55.1665L52.1569 53.1296L52.638 53.0164L53.1474 53.1296L53.5153 53.3276L54.053 53.1579L54.4209 53.3842L54.6756 53.752L55.185 53.6954L55.6378 53.4125Z" fill="#6D769D" stroke="white" stroke-width="0.8" stroke-linecap="round" stroke-linejoin="round"/>
<path d="M154.546 61.532L152.763 62.2676L152.339 62.3524L151.575 61.9281L149.99 62.6636L147.585 65.1815L146.679 66.5677L146.028 67.2466L145.179 67.6427L143.792 67.7276L143.057 69.227L142.915 71.0375L143 73.0462L143.651 74.885L144.726 76.1581L144.896 77.7989L144.245 79.3832L143.17 80.5714L142.66 80.6845L141.698 80.4299L141.245 80.2036L140.198 78.9588L138.302 78.7325L137.029 77.6292L137.51 76.9785L138.5 76.7239L138.84 75.8186L138.472 72.9613L138.925 71.1224L138.472 67.7842L136.066 65.2097L134.284 64.7288L132.642 64.1064L132.048 63.3143L131.284 62.6919L129.642 62.0978L128.878 61.5886L128.397 60.7965L128.51 59.9478L128.935 59.1556L128.963 58.2503L128.142 57.8543L124.831 58.9293L122.058 60.9945L120.445 61.1359L118.832 59.7497L118.464 58.5332L118.634 57.3733L119.002 56.2134L119.737 55.3364L120.841 55.0535L122.143 54.3746L123.218 54.12L123.133 53.1864L122.539 51.687L122.313 51.3758L122.228 51.008L122.369 50.5554L122.398 50.1027L122.284 49.3389L121.775 47.7829L121.916 42.7473L121.69 40.3992L121.973 39.3241L123.784 38.0511L127.916 36.4951L128.765 35.6747L129.557 33.3549L130.123 32.3364L131.199 31.997H132.359L133.548 34.1187L133.718 34.5431V34.8826L133.802 35.222L134.227 35.4767L134.51 35.024L134.906 33.8358L135.614 32.7608L136.802 32.1384L138.189 31.8838L139.576 32.0818L141.104 32.4779L141.67 32.7325L141.783 33.3549L141.755 34.2885L141.953 35.1372L142.519 35.5615L143.141 35.901L143.736 36.2971L144.019 36.976L143.99 37.7965L144.189 38.532L145.519 38.9847L146.99 39.1544L147.981 40.3709L148.009 42.6058L147.868 43.0019L147.641 43.3414L147.443 43.7091L147.754 44.2466L148.235 44.5013L148.773 44.3032L149.764 44.1618L149.933 44.2466L150.103 44.8124L150.132 45.4348H151.603L152.424 44.869L153.528 44.9822L153.782 45.6894L154.122 47.1323L154.065 47.9527L153.782 48.6882L153.697 49.2823L153.471 49.8481L152.622 51.0929L152.311 52.564L152.679 52.9035L153.697 52.8186L154.348 52.9035L154.603 53.1015L155.141 54.4594L155.48 54.9687L156.131 55.6759L156.669 56.0154L156.98 56.1003L157.49 56.4398L157.291 56.9773L155.197 58.8727L154.829 59.5234L154.603 60.2589L154.575 60.5701L154.603 61.2208L154.546 61.532Z" fill="#6D769D" stroke="white" stroke-width="0.8" stroke-linecap="round" stroke-linejoin="round"/>
<path d="M212.816 79.4959L213.128 81.5611L211.373 84.4184L211.316 85.4651L211.826 86.5119L212.562 87.4172L213.439 88.0395L214.458 88.4356L215.335 89.0014L216.92 91.5758L218.59 92.6509L218.335 94.716L218.476 97.8846L218.108 98.8747L217.231 99.582L212.873 102.213L210.864 103.118L208.713 103.458L200.449 103.797L197.931 103.599L198.1 103.033L197.563 102.354L196.912 100.996L196.516 99.4971L196.346 97.9694L195.667 96.3852L190.799 92.764L189.808 91.3778L189.95 90.5857L192.638 89.2277L192.695 88.5205L192.61 87.8132L192.667 84.475L192.157 83.0322L190.657 82.0986L188.988 81.3065L188.733 79.411L187.997 77.7702L185.479 76.6669L185.535 76.0162L186.78 74.2622L187.12 73.3852L187.941 70.5561L188.648 68.7739L189.356 68.1515L191.139 67.614L191.903 67.0199L193.035 65.4639L195.242 64.1908L195.808 63.5684L196.176 63.0309L196.657 62.6915L199.94 61.8145L203.166 63.3987L204.666 64.5869L205.968 65.9731L207.1 67.5291L209.562 70.0186L210.071 70.6693L210.213 71.4897L209.93 76.978L210.071 78.7038L210.298 79.411L211.939 79.5807L212.816 79.4959Z" fill="#449352" stroke="white" stroke-width="0.8" stroke-linecap="round" stroke-linejoin="round"/>
<path d="M261.067 71.1497L259.68 71.2346L256.256 71.9702L255.492 71.8853L254.728 71.6024L254.473 71.3761L254.133 71.3195L253.341 71.4327L253.143 72.7906V74.4314L252.832 76.1005L251.53 79.3256L250.709 82.5224L249.52 83.1731L247.907 82.8336L246.521 81.9283L245.219 80.7684L243.634 80.0612L241.596 79.7783L239.672 80.2309L238.399 81.7303L237.012 82.9751L236.135 83.0317L235.54 83.4843L235.116 84.333L234.465 85.0686L232.767 85.8324L230.871 86.0304L229.173 86.3982L227.814 87.5581L225.381 90.7266L222.381 92.8484L218.589 92.6504L216.919 91.5753L215.334 89.0009L214.457 88.4351L213.438 88.0391L212.561 87.4167L211.825 86.5114L211.315 85.4646L211.372 84.4179L213.127 81.5606L212.815 79.4954L213.749 79.2408L214.457 78.6467L215.023 77.9394L215.277 77.0907L215.108 75.0821L215.447 73.1584L216.777 71.6873L222.324 69.7352L223.796 68.6319L224.503 66.9911L224.39 64.9542L224.503 62.9173L225.013 62.1534L225.664 61.4745L226.626 59.7205L229.003 56.75L228.89 55.873L228.465 55.0243L227.786 54.2322L226.824 53.921L226.031 54.0341L225.409 53.8361L225.55 52.8742L226.965 50.0735L227.079 48.9985L226.513 46.5938L227.616 38.5028L227.135 34.8816L229.71 32.4203L230.758 30.9775L231.352 29.5065L231.154 28.0071L229.88 27.0735L228.833 25.9136L228.409 24.3576L228.975 19.6897L229.626 19.718L230.163 19.8029L230.616 19.9726L230.984 20.0575L231.324 19.8878L231.437 19.6048L231.635 18.3035L231.748 18.2186L232.456 18.0772L232.767 17.5962L232.908 17.0587L232.54 16.9173L232.71 16.5778L232.993 16.1251L233.078 15.7291L233.927 14.9087H234.295L234.635 14.6258L234.691 14.0882L235.37 14.654L235.738 14.7389L235.936 14.5975L236.106 14.06L236.389 13.9185L236.927 13.8053L237.295 13.4941L237.917 12.7586L238.172 12.2494L238.483 12.6171L238.823 12.5889L238.568 12.0231L238.625 11.9382L239.106 11.7401L239.417 11.6836L239.389 11.429L240.04 10.6934L240.351 10.4388L240.068 10.0993L239.7 9.95786V9.75983L240.351 10.0144L240.578 9.98615L240.663 9.59009L241.342 9.73154L241.993 9.61838L244.087 8.54335L244.709 8.31703L245.36 8.28873L245.219 8.65651L245.474 8.76967L245.926 8.74138L246.323 8.59993L246.492 8.76967L246.662 8.37361L246.804 8.28873L247.03 8.31703L247.087 8.51506L246.945 8.93941L247.568 8.65651L248.219 8.54335L248.785 8.34532L249.209 7.77951L248.87 7.72293L248.813 7.60977L249.039 7.27028L249.464 7.2137L249.52 7.01567L249.379 6.70448L249.52 6.365L249.662 6.16696L250.624 5.26167L250.964 5.00706V4.611L251.162 4.41297L251.869 4.2998L257.699 4.55442L263.076 12.1362L268.481 19.718L271.113 32.5618L271.142 34.429L271.311 34.9382V35.4191L271.17 36.1547V36.4376L271.396 36.8053L271.708 36.9751L272.076 37.06L276.915 37.2014L278.415 37.5975L279.066 37.937L279.122 38.1633L279.009 38.531L279.066 38.7574L279.235 38.9271L279.915 39.4363L280.169 39.5495V39.7475L279.858 39.889L280.311 40.2285L280.792 40.4831L281.16 40.7943L281.33 41.3035L281.443 41.4167L282.292 41.0489L282.575 41.1903L282.716 41.6996L282.264 42.1522L281.952 42.718L281.528 44.4437L281.584 44.6983L281.16 44.9812L281.216 45.4622L281.669 46.4806L281.698 46.9333L281.613 47.7254L281.358 48.4892L280.849 50.9505L280.679 51.3465L279.801 52.5065L279.688 52.7045L279.745 52.9025L279.943 53.2137L280.452 53.242L280.622 53.3552L280.933 53.8361L281.301 54.2322L281.584 54.6282L281.698 55.1092L281.726 55.7315L281.641 56.2125L281.443 56.8066L281.216 57.4007L280.933 57.825L280.509 58.0513L279.292 58.504L278.811 58.7869L277.934 59.579L277.453 59.8619L276.066 60.3146L275.613 60.5692L273.519 62.5212L273.321 62.5778L272.698 62.6627L272.415 62.7758L271.764 63.4548L271.34 63.766L270.83 64.0489L270.321 64.162L269.84 64.1055L268.17 63.3982L267.265 63.1153H266.529L265.623 63.8509L264.746 64.7561L263.953 65.7463L263.387 66.7648L262.991 67.7266L262.708 68.0944L261.803 68.6036L261.435 68.9431L261.18 69.3675L261.067 69.8484L261.237 70.7537L261.067 71.1497Z" fill="#449352" stroke="white" stroke-width="0.8" stroke-linecap="round" stroke-linejoin="round"/>
<path d="M197.93 103.599L200.449 103.797L208.712 103.458L210.891 107.56L211.457 108.097L212.25 108.239L213.042 108.493L214.4 109.71L215.193 111.436L215.646 112.143L215.872 112.878L215.759 113.699V114.548L216.58 115.934L218.079 116.641L219.042 117.857L219.183 119.527L216.834 124.449L216.664 126.09L216.778 126.967L216.551 127.731L214.966 129.032L208.882 136.359L207.354 137.746L206.052 139.273L205.854 140.009L206.873 142.555L207.807 144.252L208.457 144.903L209.222 144.988L209.844 144.45L210.354 143.8L210.835 143.092L211.57 142.753L212.419 143.121L212.985 143.828L215.278 146.006L216.41 148.722V150.335L216.693 151.891L217.287 153.164L217.598 154.38L216.212 155.738L214.74 157.917L214.287 158.369L213.863 158.709L213.665 158.907L213.806 159.048L214.372 159.161L214.683 159.444L215.872 161.142L216.778 162.132L217.061 162.726L216.863 163.263L216.636 163.377L216.212 163.207L215.957 163.179L215.646 163.292L215.363 163.461L214.372 164.367L214.004 164.593L213.919 165.017L213.778 165.215L212.985 165.357L212.731 165.329L212.533 165.47L212.363 165.894L211.004 166.771L209.561 168.101L209.137 168.695L208.995 169.346L209.137 169.685L209.674 170.279L209.788 170.704L209.731 171.354L209.561 171.977L208.882 173.561L208.316 174.353L207.693 174.721L206.759 174.806L206.137 175.315L205.797 176.107L205.627 177.097L205.486 177.635L205.033 178.059L204.439 178.37L203.845 178.512L203.59 178.484L202.826 178.342L202.486 178.625L202.175 178.653L201.779 178.427L199.628 178.653L199.005 178.568L198.609 178.229L198.156 177.097L197.76 175.258L197.675 174.325L197.732 173.391L197.647 172.26L197.194 171.298L196.402 170.675L194.194 170.279L193.43 169.516L192.977 168.469L192.751 167.394L192.383 166.46L191.591 165.923L189.666 165.187L188.025 164.31L187.402 164.112L186.978 163.773L186.836 162.613L186.412 162.047L186.072 162.726L185.789 163.575L185.591 164.48L185.45 166.29L185.053 166.517L184.572 167.224L184.487 167.592L184.459 168.129L178.403 168.214L177.752 168.016L177.271 167.648L177.016 167.167L176.677 165.442L176.478 165.046L176.139 164.961L175.601 165.3L169.828 170.195L169.29 170.421L168.837 170.279L168.356 170.053L167.819 170.025L167.366 170.534L165.555 176.277L165.272 176.503H164.423L164.989 174.212L165.272 170.223L165.187 168.723L165.951 164.593L166.658 163.207L167.621 162.019L168.809 161.17L169.828 160.208L169.998 157.407L170.932 154.55L169.885 151.806L167.479 149.656L165.357 146.996L162.696 145.158L159.102 144.733L155.48 144.846L154.546 145.016L152.961 145.752L152.225 145.893L151.942 145.384L153.244 143.432L154.037 142.753L157.461 140.461L157.942 140.037L157.857 139.386L157.687 138.962L157.744 138.538L157.659 137.321L156.414 135.737L156.499 135.001L156.753 134.379L157.15 133.87L157.716 133.615L158.876 134.011L159.442 134.294L160.093 134.407L160.8 134.634L161.479 134.719L162.13 134.69L163.093 134.068L163.743 133.049L165.017 133.134L166.8 132.993L168.498 132.512L170.026 131.352L171.384 129.966L172.941 128.834L174.611 127.929L175.262 127.335L176.507 125.835L177.044 124.987L178.176 123.629L183.61 122.299L187.346 120.432L188.166 118.904L188.138 117.999L187.827 116.528L187.997 115.764V115.085L187.317 112.822L186.921 112.171L186.723 111.464L186.468 109.682L186.638 108.154L186.497 106.881L185.987 105.749L187.232 104.929L190.232 104.844L193.119 103.458L194.675 103.203L196.317 103.599H197.93Z" fill="#449352" stroke="white" stroke-width="0.8" stroke-linecap="round" stroke-linejoin="round"/>
<path d="M196.656 62.6908L196.175 63.0303L195.807 63.5678L195.241 64.1902L193.034 65.4633L191.902 67.0192L191.138 67.6133L189.355 68.1508L188.647 68.7732L187.94 70.5555L187.119 73.3845L186.779 74.2615L185.534 76.0155L185.478 76.6662L187.996 77.7695L188.732 79.4104L188.987 81.3058L190.657 82.0979L192.156 83.0315L192.666 84.4743L192.609 87.8126L192.694 88.5198L192.638 89.2271L189.949 90.585L189.808 91.3772L190.798 92.7634L195.666 96.3845L196.345 97.9688L196.515 99.4965L196.911 100.996L197.562 102.354L198.099 103.033L197.93 103.599H196.317L194.675 103.202L193.119 103.457L190.232 104.843L187.232 104.928L185.987 105.749L185.251 105.437L181.318 102.976L169.771 97.601L169.035 97.7708L168.696 97.9971L168.384 98.5346L169.318 99.8359L169.63 100.685L169.403 101.477L167.847 102.071L167.252 102.58L166.545 104.051L165.724 104.391L164.79 104.589L161.083 104.787L157.744 104.164L156.3 103.683L155.48 102.269L154.433 101.024L153.584 100.77L153.018 100.175L153.131 99.4399L153.442 98.7609L153.838 98.1102L154.036 97.403L153.923 95.451L153.414 93.8101L151.914 93.2726L149.197 93.7535L148.32 93.1594L148.348 89.3402L148.235 88.1521L147.754 86.8507L146.933 85.804L145.546 85.4362L144.188 85.6908L143.679 85.0967L143.141 84.5875L142.433 84.1914L142.094 83.569L142.914 82.1262L143.169 80.5703L144.245 79.3821L144.895 77.7978L144.726 76.157L143.65 74.8839L142.999 73.0451L142.914 71.0364L143.056 69.2259L143.792 67.7265L145.178 67.6416L146.027 67.2455L146.678 66.5666L147.584 65.1803L149.989 62.6625L151.574 61.927L152.338 62.3513L152.763 62.2665L154.546 61.5309L155.989 61.5592L157.376 61.9553L158.847 62.5776L160.347 62.6625L161.819 62.4362L162.753 63.6244L163.941 64.0487L166.969 63.8224L168.328 63.4829L169.347 64.4448L169.884 65.8876V67.4436L169.686 68.9712L170.224 70.3009L171.582 70.8667L175.29 70.5838L176.11 71.0081L177.016 71.3476L177.667 70.9516L177.384 70.0746L177.893 68.462L180.497 67.4436L181.289 66.9343L181.855 66.2837L181.968 65.4915L180.27 64.9257L178.261 64.8409L174.526 64.1336L172.799 63.4546L170.535 60.4276L169.573 58.7019L169.149 58.8433H168.384L167.932 58.1926L168.017 57.4005L168.809 55.9294L168.781 55.109L168.413 53.3833L168.045 52.5912L167.252 52.3931L166.403 52.5063L164.96 52.9024L163.97 52.2234L164.451 50.4411L165.724 49.3095L167.705 49.1398L168.498 48.772L169.262 48.2628L176.45 45.5186L176.818 44.6982L176.62 43.708L176.761 42.9159L178.459 38.1348L178.686 37.0598L179.025 36.0131L179.563 35.5038L180.299 35.2209L182.053 34.9098L182.789 35.3907L184.034 35.7019L187.147 33.6084L188.732 34.7117L190.091 36.0414L190.402 36.9467L190.77 38.8421L190.798 39.804L190.911 40.6527L191.392 41.4165L191.873 42.3501L192.015 43.3968L192.043 45.066L192.751 48.9134L195.581 55.9294L195.722 57.9663L194.902 61.7006L195.524 62.4928L196.656 62.6908Z" fill="#449352" stroke="white" stroke-width="0.8" stroke-linecap="round" stroke-linejoin="round"/>
<path d="M228.975 19.6895L228.409 24.3574L228.834 25.9133L229.881 27.0732L231.154 28.0068L231.352 29.5062L230.758 30.9773L229.711 32.4201L227.136 34.8813L227.617 38.5025L226.513 46.5935L227.079 48.9982L226.966 50.0732L225.551 52.874L225.409 53.8358L226.032 54.0339L226.824 53.9207L227.787 54.2319L228.466 55.024L228.89 55.8727L229.004 56.7497L226.626 59.7202L225.664 61.4742L225.013 62.1532L224.504 62.917L224.391 64.9539L224.504 66.9908L223.796 68.6316L222.325 69.735L216.778 71.687L215.448 73.1581L215.108 75.0818L215.278 77.0904L215.023 77.9391L214.457 78.6464L213.75 79.2405L212.816 79.4951L211.939 79.58L210.297 79.4102L210.071 78.703L209.929 76.9773L210.212 71.489L210.071 70.6686L209.561 70.0179L207.099 67.5283L205.967 65.9724L204.666 64.5861L203.166 63.3979L199.939 61.8137L196.657 62.6907L195.525 62.4927L194.902 61.7005L195.723 57.9662L195.581 55.9293L192.751 48.9133L192.044 45.0658L192.015 43.3967L191.874 42.35L191.393 41.4164L190.912 40.6526L190.799 39.8039L190.77 38.842L190.402 36.9465L190.091 36.0412L188.733 34.7116L187.148 33.6083L186.638 32.0523L186.214 28.6292L185.478 27.0732L184.827 26.5923L184.035 26.6206L183.158 26.4225L182.309 26.0265L181.544 25.9416L179.988 26.3943L178.969 26.2528L178.743 25.6304L178.12 23.2257L177.526 22.2922L176.535 21.981L175.488 22.2639L173.253 23.1692L172.121 23.4521L170.479 24.1593L170.055 24.4705L169.8 25.1212L169.432 25.7153L167.366 26.6206L165.13 25.8567L164.508 25.687L168.526 20.9059L169.319 20.1421L169.772 19.8309L170.253 19.746L170.536 19.3217L170.621 18.7276L170.734 18.473L171.13 18.0769L175.601 15.5591L176.592 15.1347L188.676 12.532L190.94 12.334L195.213 12.8432L206.675 12.7866L213.806 14.5972L216.41 15.6722L219.665 17.6808L220.768 18.5296L221.221 18.7842L222.608 19.1237L223.711 18.9822L224.221 18.6427L224.617 18.5578L225.806 18.9822L226.06 19.1237L226.202 19.5197L226.4 19.548L226.74 19.2651L226.966 19.2368L227.192 19.35L227.532 19.6895L227.758 19.548L228.155 19.6612L228.975 19.6895Z" fill="#449352" stroke="white" stroke-width="0.8" stroke-linecap="round" stroke-linejoin="round"/>
<path d="M217.598 154.379L217.287 153.163L216.692 151.89L216.409 150.334V148.721L215.277 146.006L212.985 143.827L212.419 143.12L211.57 142.752L210.834 143.092L210.353 143.799L209.844 144.45L209.221 144.987L208.457 144.902L207.806 144.252L206.872 142.554L205.854 140.008L206.052 139.272L207.353 137.745L208.882 136.359L214.966 129.031L216.551 127.73L216.777 126.966L216.664 126.089L216.834 124.448L219.183 119.526L219.041 117.857L218.079 116.64L216.579 115.933L215.759 114.547V113.698L215.872 112.878L215.645 112.142L215.193 111.435L214.4 109.709L213.042 108.493L212.249 108.238L211.457 108.097L210.891 107.559L208.712 103.457L210.863 103.117L212.872 102.212L217.23 99.5812L218.107 98.8739L218.475 97.8837L218.334 94.7152L218.589 92.65L222.381 92.8481L225.381 90.7263L227.814 87.5578L229.173 86.3979L230.871 86.0301L232.767 85.8321L234.465 85.0682L235.116 84.3327L235.54 83.484L236.135 83.0313L237.012 82.9747L238.399 81.73L239.672 80.2306L241.596 79.778L243.634 80.0609L245.219 80.7681L246.521 81.928L247.907 82.8333L249.52 83.1728L250.709 82.5221L251.53 79.3253L252.832 76.1002L253.143 74.4311V72.7902L253.341 71.4323L254.133 71.3192L254.473 71.3757L254.728 71.6021L255.492 71.885L256.256 71.9698L259.68 71.2343L261.067 71.1494L260.925 71.4323L256.737 77.4581L256.086 78.8444L255.209 81.8431L254.416 86.3413L253.879 87.8407V88.1519L254.02 88.6328L254.077 88.9157L254.02 89.2269L253.652 90.0473L253.369 90.3868L252.86 90.7829L252.322 91.1224L251.869 91.2921L250.03 91.5184L249.237 91.8013L248.813 92.6217L248.841 93.1027L249.124 93.8948L249.209 94.3474L249.096 94.9133L248.558 95.7903L248.388 96.2712L248.417 96.8087L248.643 97.2048L249.351 97.912L249.605 98.4495L249.549 98.8173L249.322 99.2134L249.096 99.8075L248.785 101.42L248.671 102.948L248.021 104.645L246.464 105.267L244.625 105.55L242.983 106.258L242.672 106.512L241.993 107.389L241.54 107.785L240.153 108.464L240.012 108.577L239.842 109.002L239.955 109.087L240.606 109.172L240.861 109.681L241.03 110.388L241.002 111.322L240.917 111.774L240.776 112.17L239.7 114.151L239.219 115.282L239.191 116.244L239.361 117.121L238.823 121.591L238.568 122.638L238.059 123.317L237.748 123.458L236.814 123.402L236.559 123.515L236.389 123.798L236.163 124.477L235.823 125.24L235.399 125.693L232.993 126.994L232.625 127.079L232.286 126.994L231.522 126.655L231.239 126.57L230.786 126.627L230.22 126.966L229.852 127.136L229.541 127.164L229.201 127.108L228.55 126.881L228.748 127.249L229.286 128.579L229.371 128.918V129.597L229.173 129.795L228.465 130.304L227.956 131.097L227.673 131.295L227.163 131.379L226.258 131.21L225.748 131.436L225.211 132.2L225.041 133.247L225.098 134.322L225.465 136.245L225.437 136.726L225.267 137.236L224.305 138.593L224.164 139.188V140.093L224.305 141.026L224.447 141.592L224.532 141.988L224.39 142.328L223.513 143.261L221.164 146.543L220.315 148.071L220.145 148.58L220.088 149.089L220.117 149.598L220.456 150.985L220.371 151.466L220.06 151.748L219.692 152.003L219.07 152.937L217.598 154.379Z" fill="#449352" stroke="white" stroke-width="0.8" stroke-linecap="round" stroke-linejoin="round"/>
<path d="M153.245 143.432L151.943 145.384L152.226 145.893L152.962 145.752L154.547 145.016L155.481 144.846L159.103 144.733L162.697 145.158L165.358 146.997L167.48 149.656L169.886 151.806L170.933 154.55L169.999 157.407L169.829 160.208L168.81 161.17L167.622 162.019L166.659 163.207L165.952 164.593L165.188 168.723L165.273 170.223L164.99 174.212L164.424 176.503H164.141L163.433 176.645L163.094 176.956L162.556 178.003L162.16 178.37L161.679 178.597L160.745 178.965L160.292 178.201L159.613 176.956L156.811 173.646L154.717 172.571L151.009 173.278L149.679 173.307L149.028 173.165L148.576 172.769L148.802 171.354L148.236 170.138L145.406 168.469L143.708 167.875L142.095 167.733L140.567 168.299L140.255 169.063L140.482 169.968L140.086 170.647L139.293 171.072L138.303 171.326L137.256 171.354L136.322 171.185H135.388L134.709 171.694L134.058 172.401L133.35 172.769L132.586 172.854L132.048 172.231L131.737 171.439L131.567 170.534L131.313 170.138L130.832 170.11L130.718 170.364L130.464 170.732H129.926L129.388 170.845L128.511 172.005L127.605 172.231H126.671L125.681 172.373L125.313 173.165L125.087 175.145L124.04 176.56L122.426 175.57L121.662 173.929L122.455 171.722V170.562L122.2 169.431L121.606 168.469L120.644 167.988L119.795 168.214L119.087 168.752L118.153 168.865L117.248 168.441L116.37 167.79L115.578 167.054L114.927 166.234L114.021 164.338L113.795 163.377L114.701 163.829L115.691 164.65L116.455 165.017L117.078 164.819L117.163 163.744L117.531 162.811L120.672 161.085L121.634 159.473L122.059 157.549L122.115 156.785L122.398 156.106L122.879 155.286L122.285 154.861L121.379 154.974L120.615 154.578L120.332 153.645L119.964 150.787L120.021 148.043L119.936 147.195L119.455 146.346L118.776 145.639L118.068 144.62L117.785 143.404L117.729 142.159L117.842 140.801L119.03 141.084L120.559 141.254L121.691 141.65L122.483 141.819L124.153 142.017L124.973 142.244L126.134 142.951L126.53 143.092L128.511 143.432L129.162 143.687L130.435 144.337L131.171 144.564L131.935 144.648L132.614 144.846L133.152 145.412L134.228 146.035L134.822 146.487L135.105 146.629L135.558 146.742L135.869 146.374L135.699 145.525L134.595 143.092L134.058 141.367L134.426 139.698L135.756 138.594L138.84 138.227L143.595 139.811L145.321 140.207L147.896 140.292L148.745 140.207V140.094L153.245 143.432Z" fill="#A163BE" stroke="white" stroke-width="0.8" stroke-linecap="round" stroke-linejoin="round"/>
<path d="M83.7115 124.025L82.721 125.326L81.7588 128.608L81.3909 131.069L81.1645 131.776L80.6834 132.342L79.891 132.512L77.2874 131.918L74.0329 131.748L71.7123 131.21L69.3634 130.333L68.1748 129.145L67.2409 128.777L66.1938 129.739L63.5053 133.106L63.3072 133.898L64.0147 135.256L64.3543 135.68L64.7788 136.02L65.0052 136.472L65.9674 137.349L67.5239 138.311L67.722 139.754L65.175 139.839L64.3543 140.093L63.8449 140.688L63.7034 141.451L63.4204 142.017H63.0242L62.0337 142.187L61.4394 142.045L60.5055 141.989L58.949 140.999L57.4774 141.451L56.9963 141.253L56.8831 140.829L56.6001 140.659L56.2605 140.603L54.9021 140.772L54.1946 140.32L53.7135 139.499L52.723 139.471L51.7891 139.839L50.2609 139.98L49.61 140.122L49.0157 140.376L47.6856 140.659L46.1574 140.518L44.6292 140.603L44.233 140.348L43.8368 140.263L43.5538 139.782L42.8746 137.519L42.0256 136.133L41.403 135.737L40.8653 135.256L40.0163 134.011L39.1956 130.814L38.3749 129.541L36.2807 124.902L35.9694 123.459L36.2807 122.016L36.7901 121.507L37.1863 120.884L37.7523 120.29L38.5447 119.838L39.3371 118.678L38.9409 117.772L37.7806 118.48H37.1297L35.4034 118.084L32.63 117.093L31.5829 116.556L30.6773 115.764L30.1396 114.717L29.4604 113.84L28.385 113.359L27.253 113.472L26.2059 114.236L25.6116 115.396L25.3852 116.952L24.9324 117.461L24.3947 117.857L19.5554 120.29L18.5366 121.054L17.5744 121.535L16.5273 122.327L13.7539 123.6L13.4426 123.657L13.1879 123.374L12.9049 123.232L12.7351 122.978L12.3389 122.893L11.971 122.921L11.4333 123.091L10.9239 123.402L9.9617 124.251L9.4806 124.534L9.1127 124.845L8.9429 125.071L8.4052 125.298L7.1034 126.344L6.6789 126.882L6.1129 127.25L4.2451 127.674L3.3395 127.646L1.9528 128.834L1.5 123.006V122.751L1.6415 122.582L2.0377 122.412L2.1792 122.073L2.0377 121.478L2.1226 121.111L2.4056 120.432L2.4339 120.064L2.3207 119.894L2.1226 119.809V119.583L2.4622 119.017L2.6037 118.366L2.6603 116.867L2.5754 116.216L4.3866 116.386L4.6979 116.33L5.1224 115.962L5.3771 115.792L5.6318 115.735L6.3676 115.707L6.6223 115.735L7.3298 116.132H7.6128L9.2259 115.735L9.7919 115.311L10.1598 114.576L10.9522 112.114L11.4333 111.209L11.5748 110.7V109.144L11.4899 108.748L11.2069 108.012L11.0371 107.333L11.122 106.683L11.5748 105.947L11.7446 105.806L12.1408 105.692L12.3106 105.523L13.7539 103.627L13.7822 103.514L13.6124 103.061L13.7822 102.467L14.1784 102.354L14.6312 102.439L15.0557 102.467L15.8198 102.015L15.9896 101.392L15.7915 100.685L15.5085 99.9495L15.4236 99.4686L15.4802 98.9311L15.6783 98.4501L16.0745 98.1672L17.7442 97.46L18.6781 97.2336L20.0931 97.3751L20.5176 96.979L21.1119 95.8474L21.876 94.9421L22.1307 94.4612L22.2722 92.4243L22.4137 92.0282L22.7816 91.6887L23.1212 91.519L23.4325 91.2927L23.6589 90.642L25.838 90.2177L29.6019 90.1045L31.215 90.3308L31.8942 90.8966L39.7899 100.289L40.1578 100.572L40.5257 100.798H41.3464L41.7143 102.411L41.4879 104.335L41.4596 106.117L42.2237 107.446L43.95 107.22L46.0159 107.531L46.0442 107.673L46.1857 109.455L46.2706 109.851L46.4687 110.162L46.8083 110.445L47.2045 110.587L48.3648 110.785L49.044 111.039L49.327 111.52L49.3553 112.143L49.2138 112.85L49.2704 113.585L49.6949 114.038L50.3458 114.264L51.0816 114.208L52.0155 113.925L53.0626 113.303L54.5908 112.822H54.9304L55.2417 112.906L55.8077 113.161L55.836 113.303L56.2605 113.501L57.0529 114.038L58.2698 114.632L58.6377 114.887L59.0339 115.424L59.4301 115.849L59.5433 116.103L59.5716 116.867L59.7414 117.178L60.0244 117.376L60.364 117.489L62.5997 117.857L64.1845 117.772L64.5241 117.829L65.0618 118.197L65.4863 118.621L65.7693 118.847L66.3919 119.045L67.0994 119.102L67.7503 119.272L68.2031 119.555L68.5144 119.979L69.0238 120.403L69.42 120.884L69.703 121.422L70.0143 121.676L70.3822 121.79L71.7406 121.818L72.6462 122.101L72.9575 122.582L73.2971 123.063L73.5518 123.487L73.6933 123.657L73.9763 123.742L75.2215 123.713L76.2686 123.883H76.6082L76.8912 123.827L77.6553 123.487L78.2213 123.374L80.7966 123.346L81.1645 123.402L81.5041 123.544L82.2399 124.223L82.4097 124.279L83.7115 124.025Z" fill="#A163BE" stroke="white" stroke-width="0.8" stroke-linecap="round" stroke-linejoin="round"/>
<path d="M79.2691 67.0761L80.2596 68.4057L82.0708 71.4611L82.4387 73.0453L81.9576 73.2716L81.5048 73.8091L81.3067 74.4032L81.1652 76.4119L81.1935 77.0059L81.5897 78.2224L81.618 78.7882L81.5048 79.3257L81.1652 80.1462L81.1086 80.4291L81.052 81.3909L80.9105 81.6738L80.8256 82.1548L80.9671 82.9752L81.7312 83.541L82.3255 84.2483L82.7217 85.0687L83.5424 84.9555L84.1367 84.2765L84.6461 83.4844L85.863 82.1548L88.6647 79.9764L90.3344 79.6087L90.957 80.033L91.2683 80.7686L92.0041 80.91L93.7304 80.1179L94.6077 79.9481L95.5133 80.0896L96.051 79.7218L95.9378 78.7599L96.7019 78.4487L97.5509 78.5053L98.2867 78.7882L98.4848 79.2692L98.6263 81.1929L99.0225 81.3061L99.8432 81.0515L101.145 82.1548L101.173 84.0785L100.862 84.9272L101.371 85.4647L103.041 86.0871L103.749 86.5681L103.692 87.3885L103.126 88.124L102.362 88.6332L101.598 89.2556L100.975 90.0195L100.183 90.5287L99.6168 91.1794L100.692 92.5656L102.362 93.3011L104.116 93.4992L107.597 93.4426L108.729 94.2347L109.182 98.0539L109.154 98.9309L108.531 99.4401L107.795 99.4967L107.286 99.8928L107.767 100.543L108.616 100.798L109.126 101.222L108.927 101.873L109.267 102.467L109.975 102.835L110.116 103.599L109.578 104.193L109.239 104.504L109.012 104.9L108.927 105.381L108.786 105.834L107.512 106.767L107.314 107.644L107.795 108.38L108.107 108.578L108.503 109.087L108.446 109.427L108.192 110.162L108.333 110.53L108.927 110.36L109.493 110.502L106.182 115.226L106.041 115.254L104.909 114.632L102.73 112.482L101.315 112.058L96.9566 112.227L96.3906 112.482L96.2774 113.161L96.5038 130.163L96.6453 130.588L97.2113 131.606L98.2867 131.719L97.9754 132.653L97.2679 133.332L96.7868 133.502L96.4189 133.869L96.4755 134.407L96.3623 134.803L96.0227 134.605L95.7397 134.831L95.4567 135.425L95.3152 136.048L94.919 136.472L94.8341 136.331L94.4945 136.019L94.4662 135.878L94.1832 135.737L93.3059 134.775L92.372 133.304L92.089 132.992L89.7684 131.21L89.5986 131.125L89.0609 130.022L88.7496 128.89L88.693 128.183L88.5515 127.759L88.3534 127.561L87.9855 126.797L87.9289 126.174L87.3629 125.184L87.0516 124.873L86.6837 124.675L86.2026 124.59L85.3253 123.996L85.1555 123.855L84.7593 123.826L83.7122 124.024L82.4104 124.279L82.2406 124.222L81.5048 123.543L81.1652 123.402L80.7973 123.345L78.222 123.374L77.656 123.487L76.8919 123.826L76.6089 123.883H76.2693L75.2222 123.713L73.977 123.741L73.694 123.657L73.5525 123.487L73.2978 123.063L72.9582 122.582L72.6469 122.101L71.7413 121.818L70.3829 121.789L70.015 121.676L69.7037 121.422L69.4207 120.884L69.0245 120.403L68.5151 119.979L68.2038 119.555L67.751 119.272L67.1001 119.102L66.3926 119.045L65.77 118.847L65.487 118.621L65.0625 118.197L64.5248 117.829L64.1852 117.772L62.6004 117.857L60.3647 117.489L60.0251 117.376L59.7421 117.178L59.5723 116.867L59.544 116.103L59.4308 115.849L59.0346 115.424L58.6384 114.887L58.2705 114.632L57.0536 114.038L56.2612 113.5L55.8367 113.302L55.8084 113.161L55.2424 112.906L54.9311 112.821H54.5915L53.0633 113.302L52.0162 113.925L51.0823 114.208L50.3465 114.264L49.6956 114.038L49.2711 113.585L49.2145 112.85L49.356 112.142L49.3277 111.52L49.0447 111.039L48.3655 110.785L47.2052 110.587L46.809 110.445L46.4694 110.162L46.2713 109.851L46.1864 109.455L46.0449 107.673L46.0166 107.531L43.9507 107.22L42.2244 107.446L41.4603 106.117L41.4886 104.334L41.715 102.411L41.3471 100.798H40.5264L40.1585 100.572L39.7906 100.289L31.8949 90.8965L31.2157 90.3307L29.6026 90.1043L25.8387 90.2175L23.6596 90.6419L23.7162 90.1892L23.6596 89.8214L23.4332 89.5385L21.8484 87.8694L21.5088 87.3319L21.4805 86.8793L21.9616 85.7759L22.5559 84.8706L22.6691 84.5877V84.1068L22.8955 83.739L23.3483 83.2864L23.8294 83.1166L24.3105 83.2298L25.8387 84.0219L26.2066 83.9654L26.5462 83.5127L26.716 83.0601L26.7443 81.8153L26.9424 81.1929L27.5367 80.0047L27.7348 79.354L27.7065 78.0244L27.5933 77.3454L27.3952 76.8645L27.0839 76.6948L26.4613 76.5533L26.2349 76.2704L26.0085 75.4783L25.8953 75.2237L25.3293 74.6579L25.1878 74.3749L25.2161 73.9506L25.7255 72.6775L25.7538 71.9703L25.2727 69.8485L25.0463 69.4241L24.8765 68.9998L24.7633 68.5189V67.9813L25.018 67.0478L24.8199 66.878L24.6218 66.8497L24.7916 66.68L26.9424 66.9346L29.0366 68.236L31.6685 69.4524L32.9137 69.5939L39.3661 69.4241L41.7999 69.0847L44.1771 69.7071L47.0354 71.6025L48.5636 72.0551L48.5919 72.6492L47.7995 76.9211L47.8278 77.8264L47.7712 78.2507L47.6014 78.5619L47.0071 79.1843L46.9505 79.6087L44.2337 81.1646L43.3281 82.6923L43.1866 84.4746L43.2715 85.3799L43.6394 86.2003L44.262 86.6812L44.7431 87.2187L44.6016 88.9727L44.262 90.7267L44.828 91.236L46.4128 91.3208L46.7241 90.6984V89.7366L46.9788 88.8879L47.7995 88.605L50.5446 88.0392L51.337 87.7563L52.0162 87.2753L52.6105 85.6911L51.8747 84.0785L50.771 82.6074L50.6295 81.8153L50.7427 80.9949L50.6295 79.1843L51.0257 77.6L51.7615 77.3171L53.4029 77.5435L54.9877 76.7796L56.6574 76.2987L57.28 75.8178L56.7706 74.2335L55.8084 73.017L56.9404 71.5742L56.8838 70.6123L56.6574 69.6505L56.3744 68.9432L55.7235 68.7452L55.4122 68.5754L55.2141 68.1511L54.9028 67.9531H54.5066L52.6954 67.6702L50.9974 66.9629L49.5258 65.8313L49.8937 64.3036L53.1199 62.8608L60.0817 61.4463L61.808 61.4746L63.1947 62.3233L63.506 64.1339L64.355 65.6615L65.1191 66.1425L65.487 66.9346L65.3455 68.7735L65.3738 69.7071L65.6851 70.5558L66.3077 70.7821H68.6566L70.2131 70.4992L74.2883 68.7735L75.109 68.5472L75.9297 68.4623L76.524 67.9813L76.7787 67.6136L77.373 66.9346L77.7126 66.6517L78.5333 66.6234L79.2691 67.0761Z" fill="#A163BE" stroke="white" stroke-width="0.8" stroke-linecap="round" stroke-linejoin="round"/>
<path d="M98.2864 131.719L99.7297 131.663L100.607 131.776L101.654 131.606L101.456 132.426L100.862 133.954L101.994 135.963L102.107 137.519L101.739 141.027L101.456 141.762L101.032 142.441L100.749 143.403L100.72 144.393L100.918 144.45L101.484 144.195L102.277 143.686L102.928 143.064L104.145 142.356L108.899 140.744L109.691 140.659L113.823 140.998L117.163 140.687L117.842 140.8L117.729 142.158L117.785 143.403L118.068 144.62L118.776 145.638L119.455 146.345L119.936 147.194L120.021 148.043L119.964 150.787L120.332 153.644L120.615 154.578L121.379 154.974L122.285 154.861L122.879 155.285L122.398 156.105L122.115 156.784L122.058 157.548L121.634 159.472L120.672 161.084L117.53 162.81L117.163 163.744L117.078 164.819L116.455 165.017L115.691 164.649L114.7 163.829L113.795 163.376L113.002 162.669L111.87 162.584L110.993 163.036L110.257 163.631L109.522 163.885L109.069 164.281L107.739 166.064L106.55 167.139L104.597 168.525L103.692 169.6L102.673 170.42L102.079 170.137L101.711 169.6L101.541 169.458L101.371 168.695L100.579 169.204L99.9561 170.477L98.3713 171.976L97.8053 173.108L97.2959 175.428L96.5035 176.191L95.9092 176.305L95.2866 176.163L94.7772 176.135L94.5508 176.191L94.5225 175.484L94.0414 174.155L93.9565 173.136L94.0414 170.109L93.8999 168.864L93.9282 168.468L94.1829 167.535L94.8055 166.205L94.8621 166.007L94.8338 164.96L94.8621 164.706L95.0602 164.168L95.1734 162.923L95.4564 162.046L95.5696 161.622L95.4564 160.943L95.0885 160.123L95.0319 159.925L94.4093 159.727L94.098 159.557L94.0414 159.132L93.7867 158.821L93.4188 158.538L92.7962 158.595L91.834 158.991L90.6737 159.217L90.3624 158.765L90.2492 158.312L89.9379 157.888L89.4002 156.558L88.8059 156.021L88.3248 155.964L87.4475 156.19L86.8815 156.162L86.2306 155.398L85.4382 154.861L85.0986 154.578L84.8439 154.153L84.3911 154.267L83.91 154.549L82.8346 155.002L81.7592 155.03L81.1649 154.21L81.4196 153.163L81.2498 152.626L80.4857 152.371L80.5706 151.918L80.1744 151.664L79.6933 151.749L79.2971 151.551L77.8255 149.938L76.6369 148.099L76.8067 147.166L76.0992 146.854L74.2031 147.194L73.1277 146.883L71.2882 145.977L70.892 145.638L70.5807 145.666L69.7883 144.959L69.4487 143.941L69.6185 142.922L70.2977 142.073L70.8354 141.762L70.8637 141.225L70.5241 140.97L70.0713 140.914L69.2223 140.998L68.3733 141.196L67.7224 141.592L67.2696 141.423L67.2413 140.404L67.7224 139.754L67.5243 138.311L65.9678 137.349L65.0056 136.472L64.7792 136.019L64.3547 135.68L64.0151 135.255L63.3076 133.898L63.5057 133.105L66.1942 129.739L67.2413 128.777L68.1752 129.145L69.3638 130.333L71.7127 131.21L74.0333 131.747L77.2878 131.917L79.8914 132.511L80.6838 132.342L81.1649 131.776L81.3913 131.068L81.7592 128.607L82.7214 125.326L83.7119 124.024L84.759 123.826L85.1552 123.854L85.325 123.996L86.2023 124.59L86.6834 124.675L87.0513 124.873L87.3626 125.184L87.9286 126.174L87.9852 126.797L88.3531 127.56L88.5512 127.759L88.6927 128.183L88.7493 128.89L89.0606 130.022L89.5983 131.125L89.7681 131.21L92.0887 132.992L92.3717 133.303L93.3056 134.775L94.1829 135.736L94.4659 135.878L94.4942 136.019L94.8338 136.33L94.9187 136.472L95.3149 136.048L95.4564 135.425L95.7394 134.831L96.0224 134.605L96.362 134.803L96.4752 134.407L96.4186 133.869L96.7865 133.501L97.2676 133.332L97.9751 132.653L98.2864 131.719Z" fill="#A163BE" stroke="white" stroke-width="0.8" stroke-linecap="round" stroke-linejoin="round"/>
<path d="M185.988 105.749L186.497 106.881L186.639 108.154L186.469 109.681L186.723 111.464L186.922 112.171L187.318 112.822L187.997 115.085V115.764L187.827 116.528L188.138 117.999L188.167 118.904L187.346 120.432L183.61 122.299L178.177 123.628L177.045 124.986L176.507 125.835L175.262 127.334L174.611 127.929L172.941 128.834L171.385 129.965L170.026 131.352L168.498 132.512L166.8 132.992L165.017 133.134L163.744 133.049L162.867 131.804L161.593 130.984L158.848 129.824L157.376 129.767L155.876 130.22L153.726 130.616L151.518 130.588L150.075 130.192L148.122 129.145L147.585 128.183L147.726 127.023L147.556 126.033L146.99 125.241L146.537 124.081L146.934 123.091L147.528 122.355L148.094 121.507L148.971 121.224L149.509 120.686L150.499 119.357L150.839 118.508L150.981 117.829L150.556 117.291L149.905 116.867L149.169 117.065L148.801 117.235L148.405 117.291L146.792 117.32L145.236 117.008L144.132 115.849L143.764 114.236L142.604 113.387L141.245 112.708L141.726 111.35L141.84 109.879L140.934 108.606L139.83 107.446L138.868 106.032V102.637L139.547 102.128L139.604 101.703V101.307L140.566 99.9494L140.368 99.1573L140.51 98.2237V96.3849L141.443 93.2446L140.821 91.4341L141.245 89.6518L142.434 88.3221L143.283 87.9261L143.849 87.1622L143.962 86.3701L144.189 85.6911L145.547 85.4365L146.934 85.8043L147.754 86.851L148.235 88.1524L148.349 89.3406L148.32 93.1598L149.198 93.7539L151.914 93.2729L153.414 93.8104L153.924 95.4513L154.037 97.4033L153.839 98.1106L153.443 98.7613L153.131 99.4402L153.018 100.176L153.584 100.77L154.433 101.024L155.48 102.269L156.301 103.684L157.744 104.165L161.084 104.787L164.791 104.589L165.725 104.391L166.546 104.052L167.253 102.58L167.847 102.071L169.404 101.477L169.63 100.685L169.319 99.8363L168.385 98.5349L168.696 97.9974L169.036 97.7711L169.772 97.6013L181.318 102.977L185.252 105.438L185.988 105.749Z" fill="#A163BE" stroke="white" stroke-width="0.8" stroke-linecap="round" stroke-linejoin="round"/>
<path d="M141.245 112.708L142.604 113.387L143.764 114.236L144.132 115.849L145.236 117.008L146.792 117.32L148.405 117.291L148.801 117.235L149.169 117.065L149.905 116.867L150.556 117.291L150.981 117.829L150.839 118.508L150.499 119.357L149.509 120.686L148.971 121.224L148.094 121.507L147.528 122.355L146.934 123.091L146.537 124.081L146.99 125.241L147.556 126.033L147.726 127.023L147.585 128.183L148.122 129.145L150.075 130.192L151.518 130.588L153.726 130.616L155.876 130.22L157.376 129.767L158.848 129.824L161.593 130.984L162.867 131.804L163.744 133.049L163.093 134.068L162.131 134.69L161.48 134.718L160.801 134.633L160.093 134.407L159.442 134.294L158.876 134.011L157.716 133.615L157.15 133.869L156.754 134.379L156.499 135.001L156.414 135.737L157.659 137.321L157.744 138.537L157.688 138.962L157.857 139.386L157.942 140.037L157.461 140.461L154.037 142.753L153.245 143.432L148.745 140.093V140.206L147.896 140.291L145.321 140.206L143.594 139.81L138.84 138.226L135.755 138.594L134.425 139.697L134.057 141.366L134.595 143.092L135.699 145.525L135.868 146.374L135.557 146.742L135.104 146.628L134.821 146.487L134.227 146.034L133.152 145.412L132.614 144.846L131.935 144.648L131.171 144.563L130.435 144.337L129.161 143.686L128.51 143.432L126.529 143.092L126.133 142.951L124.973 142.243L124.152 142.017L122.482 141.819L121.69 141.649L120.558 141.253L119.03 141.083L117.841 140.801L117.162 140.687L113.823 140.999L109.691 140.659L108.898 140.744L104.144 142.357L102.927 143.064L102.276 143.686L101.484 144.195L100.918 144.45L100.72 144.393L100.748 143.403L101.031 142.441L101.456 141.762L101.739 141.027L102.106 137.519L101.993 135.963L100.861 133.954L101.456 132.427L101.654 131.606L105.05 131.069L108.361 130.192L111.389 128.664L112.436 127.532L113.257 126.175L114.275 123.345L115.379 118.536L115.294 116.188L115.351 114.717L115.889 112.143L116.313 111.379L116.596 111.294L116.879 111.096L116.964 110.643L116.907 110.162L117.558 109.851L117.898 110.502L118.464 110.785L119.228 110.728L119.794 111.209L120.586 111.266L121.379 111.605L122.199 111.237L123.105 109.568L124.548 109.342L125.312 110.049L125.539 110.587L125.511 111.209L126.275 111.803L127.209 112.369L127.463 115.17L128.058 117.461L129.925 116.443L131.284 114.519L131.906 113.925L132.67 114.236L134.793 114.802L135.755 116.047L136.208 116.499L136.519 117.037L137.085 117.603L138.019 117.489L139.01 116.471L139.774 115.141L140.368 113.727L141.245 112.708Z" fill="#A163BE" stroke="white" stroke-width="0.8" stroke-linecap="round" stroke-linejoin="round"/>
<path d="M116.907 110.162L116.964 110.643L116.879 111.096L116.596 111.294L116.313 111.379L115.888 112.142L115.351 114.717L115.294 116.188L115.379 118.536L114.275 123.345L113.256 126.174L112.436 127.532L111.389 128.664L108.36 130.192L105.049 131.069L101.653 131.606L100.606 131.776L99.729 131.663L98.2857 131.719L97.2103 131.606L96.6443 130.588L96.5028 130.163L96.2764 113.161L96.3896 112.482L96.9556 112.227L101.314 112.058L102.729 112.482L104.908 114.632L106.04 115.254L106.181 115.226L109.492 110.502L111.728 110.247L112.379 110.275L113.03 110.36L113.624 110.615L114.134 110.247L114.869 109.2L115.718 109.511L116.143 110.332L116.907 110.162Z" fill="#A163BE" stroke="white" stroke-width="0.8" stroke-linecap="round" stroke-linejoin="round"/>
</g>
<defs>
<clipPath id="clip0_2087_18566">
<rect width="283" height="230" fill="white"/>
</clipPath>
</defs>
</svg>
