<svg width="223" height="223" viewBox="0 0 223 223" fill="none" xmlns="http://www.w3.org/2000/svg">
<path d="M111.602 0.000289917C173.074 0.000289917 222.906 49.8326 222.906 111.304C222.906 172.775 173.074 222.607 111.602 222.607C50.1311 222.607 0.298828 172.775 0.298828 111.304C0.298828 49.8326 50.1311 0.000289917 111.602 0.000289917ZM111.602 192.555C156.476 192.555 192.854 156.178 192.854 111.304C192.854 66.4298 156.476 30.0522 111.602 30.0522C66.7284 30.0522 30.3508 66.4298 30.3508 111.304C30.3508 156.178 66.7284 192.555 111.602 192.555Z" fill="#E30325"/>
<path d="M222.906 111.304C222.906 134.809 215.465 157.711 201.649 176.726C187.833 195.742 168.352 209.896 145.997 217.16C123.642 224.423 99.5623 224.423 77.2077 217.16C54.8531 209.896 35.3718 195.742 21.5559 176.726C7.74001 157.71 0.298823 134.809 0.298828 111.304C0.298833 87.7988 7.74003 64.8972 21.5559 45.8812C35.3718 26.8653 54.8531 12.7113 77.2077 5.44786C99.5623 -1.81558 123.643 -1.81557 145.997 5.44789L136.711 34.029C120.392 28.7267 102.813 28.7267 86.4943 34.029C70.1754 39.3313 55.9541 49.6637 45.8685 63.5453C35.7829 77.427 30.3508 94.1452 30.3508 111.304C30.3508 128.462 35.7829 145.181 45.8685 159.062C55.9541 172.944 70.1754 183.276 86.4943 188.579C102.813 193.881 120.392 193.881 136.711 188.579C153.029 183.276 167.251 172.944 177.336 159.062C187.422 145.181 192.854 128.463 192.854 111.304L222.906 111.304Z" fill="#449352"/>
</svg>
