<svg width="9" height="13" viewBox="0 0 9 13" fill="none" xmlns="http://www.w3.org/2000/svg">
<path fill-rule="evenodd" clip-rule="evenodd" d="M4.50662 7.7805C4.08492 7.78172 3.66717 7.69848 3.27745 7.5356C2.88774 7.37272 2.53379 7.13342 2.23603 6.8315C0.214226 4.78985 1.66517 1.29675 4.50662 1.29675C7.34614 1.29675 8.80093 4.7879 6.77785 6.8315C6.48 7.13349 6.12595 7.37284 5.73612 7.53573C5.34629 7.69861 4.92842 7.7818 4.50662 7.7805ZM7.67657 7.748C10.518 4.87955 8.47114 0 4.50469 0C0.547229 0 -1.52407 4.87955 1.31866 7.748C2.03224 8.4695 3.20418 8.892 3.8464 9.0259V10.4065H1.91974V11.7032H3.8464V13H5.13083V11.7032H7.05749V10.4065H5.13083V9.0259C6.41527 8.89135 6.96299 8.4682 7.67657 7.748Z" fill="#E5B805"/>
</svg>
