<svg width="24" height="24" viewBox="0 0 24 24" fill="none" xmlns="http://www.w3.org/2000/svg">
<circle cx="12" cy="12" r="12" fill="url(#paint0_linear_2087_20674)"/>
<path d="M15.9487 7.2002H8.65173C7.82789 7.2002 7.2002 7.82789 7.2002 8.65173V15.9487C7.2002 16.7725 7.82789 17.4002 8.65173 17.4002H15.9487C16.7725 17.4002 17.4002 16.7725 17.4002 15.9487V8.65173C17.4002 7.82789 16.7725 7.2002 15.9487 7.2002ZM12.3002 15.3602C13.9871 15.3602 15.3602 14.0263 15.3602 12.4179C15.3602 12.1433 15.321 11.8294 15.2425 11.594H16.1056V15.7525C16.1056 15.9487 15.9487 16.1448 15.7133 16.1448H8.88712C8.69097 16.1448 8.49481 15.9879 8.49481 15.7525V11.5548H9.39712C9.31866 11.8294 9.27943 12.104 9.27943 12.3787C9.2402 14.0263 10.6133 15.3602 12.3002 15.3602ZM12.3002 14.1833C11.2017 14.1833 10.3387 13.3202 10.3387 12.261C10.3387 11.2017 11.2017 10.3387 12.3002 10.3387C13.3987 10.3387 14.2617 11.2017 14.2617 12.261C14.2617 13.3594 13.3987 14.1833 12.3002 14.1833ZM16.0664 9.98558C16.0664 10.221 15.8702 10.4171 15.6348 10.4171H14.5363C14.301 10.4171 14.1048 10.221 14.1048 9.98558V8.92635C14.1048 8.69096 14.301 8.49481 14.5363 8.49481H15.6348C15.8702 8.49481 16.0664 8.69096 16.0664 8.92635V9.98558Z" fill="white"/>
<defs>
<linearGradient id="paint0_linear_2087_20674" x1="5.1" y1="21.3" x2="21" y2="4.8" gradientUnits="userSpaceOnUse">
<stop stop-color="#EEA054"/>
<stop offset="0.502762" stop-color="#D64763"/>
<stop offset="1" stop-color="#B62A99"/>
</linearGradient>
</defs>
</svg>
