<svg width="24" height="24" viewBox="0 0 24 24" fill="none" xmlns="http://www.w3.org/2000/svg">
<circle cx="12" cy="12" r="12" fill="#55ACE3"/>
<path d="M18.3596 8.9398C17.9396 9.1198 17.4596 9.2398 16.9796 9.2998C17.4596 8.9998 17.8796 8.51981 18.0596 7.97981C17.5796 8.27981 17.0996 8.45981 16.4996 8.57981C16.0796 8.09981 15.4196 7.7998 14.7596 7.7998C13.4396 7.7998 12.3596 8.8798 12.3596 10.1998C12.3596 10.3798 12.3596 10.5598 12.4196 10.7398C10.4396 10.6198 8.63961 9.6598 7.43961 8.2198C7.25961 8.5798 7.13961 8.9998 7.13961 9.4198C7.13961 10.2598 7.55961 10.9798 8.21961 11.3998C7.79961 11.3998 7.43961 11.2798 7.13961 11.0998C7.13961 12.2398 7.9796 13.2598 9.0596 13.4398C8.8796 13.4998 8.63961 13.4998 8.39961 13.4998C8.21961 13.4998 8.09961 13.4998 7.91961 13.4398C8.21961 14.3998 9.11961 15.1198 10.1996 15.1198C9.35961 15.7798 8.33961 16.1398 7.19961 16.1398C7.01961 16.1398 6.83961 16.1398 6.59961 16.0798C7.67961 16.7398 8.93961 17.1598 10.3196 17.1598C14.7596 17.1598 17.1596 13.4998 17.1596 10.3198V10.0198C17.6396 9.8398 18.0596 9.4198 18.3596 8.9398Z" fill="white"/>
</svg>
