<svg width="40" height="40" viewBox="0 0 40 40" fill="none" xmlns="http://www.w3.org/2000/svg">
<rect width="40" height="40" rx="8" fill="#D0F8FF"/>
<path d="M26.9445 17.9101C26.3689 18.2947 25.6922 18.5 25 18.5C24.0717 18.5 23.1815 18.1313 22.5251 17.4749C21.8687 16.8185 21.5 15.9283 21.5 15C21.5 14.3078 21.7053 13.6311 22.0899 13.0555C22.4744 12.4799 23.0211 12.0313 23.6606 11.7664C24.3001 11.5015 25.0039 11.4322 25.6828 11.5673C26.3617 11.7023 26.9854 12.0356 27.4749 12.5251C27.9644 13.0146 28.2977 13.6383 28.4327 14.3172C28.5678 14.9961 28.4985 15.6999 28.2336 16.3394C27.9687 16.9789 27.5201 17.5256 26.9445 17.9101ZM31.3536 28.3536C31.2598 28.4473 31.1326 28.5 31 28.5H19C18.8674 28.5 18.7402 28.4473 18.6464 28.3536C18.5527 28.2598 18.5 28.1326 18.5 28C18.5 26.2761 19.1848 24.6228 20.4038 23.4038C21.6228 22.1848 23.2761 21.5 25 21.5C26.7239 21.5 28.3772 22.1848 29.5962 23.4038C30.8152 24.6228 31.5 26.2761 31.5 28C31.5 28.1326 31.4473 28.2598 31.3536 28.3536Z" fill="#006A76"/>
<path d="M26.9445 17.9101C26.3689 18.2947 25.6922 18.5 25 18.5C24.0717 18.5 23.1815 18.1313 22.5251 17.4749C21.8687 16.8185 21.5 15.9283 21.5 15C21.5 14.3078 21.7053 13.6311 22.0899 13.0555C22.4744 12.4799 23.0211 12.0313 23.6606 11.7664C24.3001 11.5015 25.0039 11.4322 25.6828 11.5673C26.3617 11.7023 26.9854 12.0356 27.4749 12.5251C27.9644 13.0146 28.2977 13.6383 28.4327 14.3172C28.5678 14.9961 28.4985 15.6999 28.2336 16.3394C27.9687 16.9789 27.5201 17.5256 26.9445 17.9101ZM31.3536 28.3536C31.2598 28.4473 31.1326 28.5 31 28.5H19C18.8674 28.5 18.7402 28.4473 18.6464 28.3536C18.5527 28.2598 18.5 28.1326 18.5 28C18.5 26.2761 19.1848 24.6228 20.4038 23.4038C21.6228 22.1848 23.2761 21.5 25 21.5C26.7239 21.5 28.3772 22.1848 29.5962 23.4038C30.8152 24.6228 31.5 26.2761 31.5 28C31.5 28.1326 31.4473 28.2598 31.3536 28.3536Z" stroke="#191C1D"/>
<path d="M26.9445 17.9101C26.3689 18.2947 25.6922 18.5 25 18.5C24.0717 18.5 23.1815 18.1313 22.5251 17.4749C21.8687 16.8185 21.5 15.9283 21.5 15C21.5 14.3078 21.7053 13.6311 22.0899 13.0555C22.4744 12.4799 23.0211 12.0313 23.6606 11.7664C24.3001 11.5015 25.0039 11.4322 25.6828 11.5673C26.3617 11.7023 26.9854 12.0356 27.4749 12.5251C27.9644 13.0146 28.2977 13.6383 28.4327 14.3172C28.5678 14.9961 28.4985 15.6999 28.2336 16.3394C27.9687 16.9789 27.5201 17.5256 26.9445 17.9101ZM31.3536 28.3536C31.2598 28.4473 31.1326 28.5 31 28.5H19C18.8674 28.5 18.7402 28.4473 18.6464 28.3536C18.5527 28.2598 18.5 28.1326 18.5 28C18.5 26.2761 19.1848 24.6228 20.4038 23.4038C21.6228 22.1848 23.2761 21.5 25 21.5C26.7239 21.5 28.3772 22.1848 29.5962 23.4038C30.8152 24.6228 31.5 26.2761 31.5 28C31.5 28.1326 31.4473 28.2598 31.3536 28.3536Z" stroke="#4FD8EC" stroke-opacity="0.05"/>
<g clip-path="url(#clip0_382_8098)">
<path d="M13.093 21.889L13.9731 23.414L12.3244 24.213L12.0989 24.3223V24.5729V28.0999H11.8989V25.0579V24.4197L11.3245 24.6979L9.46269 25.5997L8.94507 24.7034L13.093 21.889ZM15.8911 19.9598C16.3086 20.0715 16.6647 20.3445 16.8811 20.7187C17.0972 21.093 17.1557 21.5378 17.0438 21.9553C16.932 22.3728 16.6588 22.7288 16.2845 22.9449C15.9758 23.1225 15.6323 23.1797 15.2951 23.1374L13.9936 20.8826C14.126 20.5687 14.3469 20.3002 14.6543 20.1229L14.6544 20.1228C15.0287 19.9067 15.4736 19.8481 15.8911 19.9598Z" fill="#006A76"/>
<path d="M13.093 21.889L13.9731 23.414L12.3244 24.213L12.0989 24.3223V24.5729V28.0999H11.8989V25.0579V24.4197L11.3245 24.6979L9.46269 25.5997L8.94507 24.7034L13.093 21.889ZM15.8911 19.9598C16.3086 20.0715 16.6647 20.3445 16.8811 20.7187C17.0972 21.093 17.1557 21.5378 17.0438 21.9553C16.932 22.3728 16.6588 22.7288 16.2845 22.9449C15.9758 23.1225 15.6323 23.1797 15.2951 23.1374L13.9936 20.8826C14.126 20.5687 14.3469 20.3002 14.6543 20.1229L14.6544 20.1228C15.0287 19.9067 15.4736 19.8481 15.8911 19.9598Z" stroke="#191C1D" stroke-width="0.8"/>
<path d="M13.093 21.889L13.9731 23.414L12.3244 24.213L12.0989 24.3223V24.5729V28.0999H11.8989V25.0579V24.4197L11.3245 24.6979L9.46269 25.5997L8.94507 24.7034L13.093 21.889ZM15.8911 19.9598C16.3086 20.0715 16.6647 20.3445 16.8811 20.7187C17.0972 21.093 17.1557 21.5378 17.0438 21.9553C16.932 22.3728 16.6588 22.7288 16.2845 22.9449C15.9758 23.1225 15.6323 23.1797 15.2951 23.1374L13.9936 20.8826C14.126 20.5687 14.3469 20.3002 14.6543 20.1229L14.6544 20.1228C15.0287 19.9067 15.4736 19.8481 15.8911 19.9598Z" stroke="#4FD8EC" stroke-opacity="0.05" stroke-width="0.8"/>
</g>
<defs>
<clipPath id="clip0_382_8098">
<rect width="10" height="10" fill="white" transform="translate(8 19)"/>
</clipPath>
</defs>
</svg>
