<svg width="40" height="40" viewBox="0 0 40 40" fill="none" xmlns="http://www.w3.org/2000/svg">
<rect width="40" height="40" rx="4" fill="#D0F8FF"/>
<path d="M15 25.9999C15 25.4318 15 24.7584 15.002 24.358V24.3555V24.3555V24.3555V24.3555V24.3555V24.3554V24.3554V24.3554V24.3554V24.3554V24.3554V24.3554V24.3554V24.3553V24.3553V24.3553V24.3553V24.3553V24.3553V24.3553V24.3553V24.3553V24.3552V24.3552V24.3552V24.3552V24.3552V24.3552V24.3552V24.3552V24.3551V24.3551V24.3551V24.3551V24.3551V24.3551V24.3551V24.3551V24.3551V24.355V24.355V24.355V24.355V24.355V24.355V24.355V24.355V24.3549V24.3549V24.3549V24.3549V24.3549V24.3549V24.3549V24.3549V24.3549V24.3548V24.3548V24.3548V24.3548V24.3548V24.3548V24.3548V24.3548V24.3547V24.3547V24.3547V24.3547V24.3547V24.3547V24.3547V24.3547V24.3547V24.3546V24.3546V24.3546V24.3546V24.3546V24.3546V24.3546V24.3546V24.3546V24.3545V24.3545V24.3545V24.3545V24.3545V24.3545V24.3545V24.3545V24.3544V24.3544V24.3544V24.3544V24.3544V24.3544V24.3544V24.3544V24.3544V24.3543V24.3543V24.3543V24.3543V24.3543V24.3543V24.3543V24.3543V24.3542V24.3542V24.3542V24.3542V24.3542V24.3542V24.3542V24.3542V24.3542V24.3541V24.3541V24.3541V24.3541V24.3541V24.3541V24.3541V24.3541V24.354V24.354V24.354V24.354V24.354V24.354C15.6012 23.6737 17.3448 22 20 22C23.0285 22 24.5383 23.6665 25 24.2922V25.9999L24.9999 26H15.0001L15 25.9999ZM14.9999 26.0001C15 26.0001 15 26.0001 15 26.0002C15.0001 26.0004 15 26.0004 15 26C14.9996 26 14.9996 25.9999 14.9998 26C14.9999 26 14.9999 26 14.9999 26.0001ZM13 24C13.0112 24 13.0223 24 13.0334 24.0001L13.5372 24.0301C13.514 24.1353 13.502 24.2434 13.502 24.3525L13.002 24.35C13.002 24.3504 13.002 24.3508 13.002 24.3512C13 24.7528 13 25.4302 13 25.9976V26H10C10 25.7599 10 25.526 10.0027 25.3477C10.0028 25.3458 10.0029 25.344 10.003 25.3425C10.0033 25.3344 10.0034 25.3278 10.0035 25.3237L10.0035 25.3172C10.3619 24.882 11.3003 24 13 24ZM15.002 24.3531V24.3531V24.3531V24.3531V24.3531V24.3531V24.3531V24.3531V24.3531V24.353V24.353V24.353V24.353V24.353V24.353V24.353V24.353V24.3529V24.3529V24.3529V24.3529V24.3529V24.3529V24.3529V24.3529V24.3529V24.3528V24.3528V24.3528V24.3528V24.3528V24.3528V24.3528V24.3528V24.3527V24.3527V24.3527V24.3527V24.3527V24.3527V24.3527V24.3527V24.3527V24.3526V24.3526V24.3526V24.3526V24.3526V24.3526V24.3526L15.0022 24.3533L15.002 24.3532V24.3531ZM30 26H27V24.2925C27 24.1942 26.9928 24.0965 26.9786 24C26.9857 24 26.9928 24 27 24C28.6986 24 29.6381 24.8814 30 25.3156V26ZM11 20C11 18.8961 11.8961 18 13 18C14.1039 18 15 18.8961 15 20C15 21.1039 14.1039 22 13 22C11.8961 22 11 21.1039 11 20ZM25 20C25 18.8961 25.8961 18 27 18C28.1039 18 29 18.8961 29 20C29 21.1039 28.1039 22 27 22C25.8961 22 25 21.1039 25 20ZM17 17C17 15.3446 18.3446 14 20 14C21.6554 14 23 15.3446 23 17C23 18.6554 21.6554 20 20 20C18.3446 20 17 18.6554 17 17Z" fill="#006A76"/>
<path d="M15 25.9999C15 25.4318 15 24.7584 15.002 24.358V24.3555V24.3555V24.3555V24.3555V24.3555V24.3554V24.3554V24.3554V24.3554V24.3554V24.3554V24.3554V24.3554V24.3553V24.3553V24.3553V24.3553V24.3553V24.3553V24.3553V24.3553V24.3553V24.3552V24.3552V24.3552V24.3552V24.3552V24.3552V24.3552V24.3552V24.3551V24.3551V24.3551V24.3551V24.3551V24.3551V24.3551V24.3551V24.3551V24.355V24.355V24.355V24.355V24.355V24.355V24.355V24.355V24.3549V24.3549V24.3549V24.3549V24.3549V24.3549V24.3549V24.3549V24.3549V24.3548V24.3548V24.3548V24.3548V24.3548V24.3548V24.3548V24.3548V24.3547V24.3547V24.3547V24.3547V24.3547V24.3547V24.3547V24.3547V24.3547V24.3546V24.3546V24.3546V24.3546V24.3546V24.3546V24.3546V24.3546V24.3546V24.3545V24.3545V24.3545V24.3545V24.3545V24.3545V24.3545V24.3545V24.3544V24.3544V24.3544V24.3544V24.3544V24.3544V24.3544V24.3544V24.3544V24.3543V24.3543V24.3543V24.3543V24.3543V24.3543V24.3543V24.3543V24.3542V24.3542V24.3542V24.3542V24.3542V24.3542V24.3542V24.3542V24.3542V24.3541V24.3541V24.3541V24.3541V24.3541V24.3541V24.3541V24.3541V24.354V24.354V24.354V24.354V24.354V24.354C15.6012 23.6737 17.3448 22 20 22C23.0285 22 24.5383 23.6665 25 24.2922V25.9999L24.9999 26H15.0001L15 25.9999ZM14.9999 26.0001C15 26.0001 15 26.0001 15 26.0002C15.0001 26.0004 15 26.0004 15 26C14.9996 26 14.9996 25.9999 14.9998 26C14.9999 26 14.9999 26 14.9999 26.0001ZM13 24C13.0112 24 13.0223 24 13.0334 24.0001L13.5372 24.0301C13.514 24.1353 13.502 24.2434 13.502 24.3525L13.002 24.35C13.002 24.3504 13.002 24.3508 13.002 24.3512C13 24.7528 13 25.4302 13 25.9976V26H10C10 25.7599 10 25.526 10.0027 25.3477C10.0028 25.3458 10.0029 25.344 10.003 25.3425C10.0033 25.3344 10.0034 25.3278 10.0035 25.3237L10.0035 25.3172C10.3619 24.882 11.3003 24 13 24ZM15.002 24.3531V24.3531V24.3531V24.3531V24.3531V24.3531V24.3531V24.3531V24.3531V24.353V24.353V24.353V24.353V24.353V24.353V24.353V24.353V24.3529V24.3529V24.3529V24.3529V24.3529V24.3529V24.3529V24.3529V24.3529V24.3528V24.3528V24.3528V24.3528V24.3528V24.3528V24.3528V24.3528V24.3527V24.3527V24.3527V24.3527V24.3527V24.3527V24.3527V24.3527V24.3527V24.3526V24.3526V24.3526V24.3526V24.3526V24.3526V24.3526L15.0022 24.3533L15.002 24.3532V24.3531ZM30 26H27V24.2925C27 24.1942 26.9928 24.0965 26.9786 24C26.9857 24 26.9928 24 27 24C28.6986 24 29.6381 24.8814 30 25.3156V26ZM11 20C11 18.8961 11.8961 18 13 18C14.1039 18 15 18.8961 15 20C15 21.1039 14.1039 22 13 22C11.8961 22 11 21.1039 11 20ZM25 20C25 18.8961 25.8961 18 27 18C28.1039 18 29 18.8961 29 20C29 21.1039 28.1039 22 27 22C25.8961 22 25 21.1039 25 20ZM17 17C17 15.3446 18.3446 14 20 14C21.6554 14 23 15.3446 23 17C23 18.6554 21.6554 20 20 20C18.3446 20 17 18.6554 17 17Z" stroke="#191C1D"/>
<path d="M15 25.9999C15 25.4318 15 24.7584 15.002 24.358V24.3555V24.3555V24.3555V24.3555V24.3555V24.3554V24.3554V24.3554V24.3554V24.3554V24.3554V24.3554V24.3554V24.3553V24.3553V24.3553V24.3553V24.3553V24.3553V24.3553V24.3553V24.3553V24.3552V24.3552V24.3552V24.3552V24.3552V24.3552V24.3552V24.3552V24.3551V24.3551V24.3551V24.3551V24.3551V24.3551V24.3551V24.3551V24.3551V24.355V24.355V24.355V24.355V24.355V24.355V24.355V24.355V24.3549V24.3549V24.3549V24.3549V24.3549V24.3549V24.3549V24.3549V24.3549V24.3548V24.3548V24.3548V24.3548V24.3548V24.3548V24.3548V24.3548V24.3547V24.3547V24.3547V24.3547V24.3547V24.3547V24.3547V24.3547V24.3547V24.3546V24.3546V24.3546V24.3546V24.3546V24.3546V24.3546V24.3546V24.3546V24.3545V24.3545V24.3545V24.3545V24.3545V24.3545V24.3545V24.3545V24.3544V24.3544V24.3544V24.3544V24.3544V24.3544V24.3544V24.3544V24.3544V24.3543V24.3543V24.3543V24.3543V24.3543V24.3543V24.3543V24.3543V24.3542V24.3542V24.3542V24.3542V24.3542V24.3542V24.3542V24.3542V24.3542V24.3541V24.3541V24.3541V24.3541V24.3541V24.3541V24.3541V24.3541V24.354V24.354V24.354V24.354V24.354V24.354C15.6012 23.6737 17.3448 22 20 22C23.0285 22 24.5383 23.6665 25 24.2922V25.9999L24.9999 26H15.0001L15 25.9999ZM14.9999 26.0001C15 26.0001 15 26.0001 15 26.0002C15.0001 26.0004 15 26.0004 15 26C14.9996 26 14.9996 25.9999 14.9998 26C14.9999 26 14.9999 26 14.9999 26.0001ZM13 24C13.0112 24 13.0223 24 13.0334 24.0001L13.5372 24.0301C13.514 24.1353 13.502 24.2434 13.502 24.3525L13.002 24.35C13.002 24.3504 13.002 24.3508 13.002 24.3512C13 24.7528 13 25.4302 13 25.9976V26H10C10 25.7599 10 25.526 10.0027 25.3477C10.0028 25.3458 10.0029 25.344 10.003 25.3425C10.0033 25.3344 10.0034 25.3278 10.0035 25.3237L10.0035 25.3172C10.3619 24.882 11.3003 24 13 24ZM15.002 24.3531V24.3531V24.3531V24.3531V24.3531V24.3531V24.3531V24.3531V24.3531V24.353V24.353V24.353V24.353V24.353V24.353V24.353V24.353V24.3529V24.3529V24.3529V24.3529V24.3529V24.3529V24.3529V24.3529V24.3529V24.3528V24.3528V24.3528V24.3528V24.3528V24.3528V24.3528V24.3528V24.3527V24.3527V24.3527V24.3527V24.3527V24.3527V24.3527V24.3527V24.3527V24.3526V24.3526V24.3526V24.3526V24.3526V24.3526V24.3526L15.0022 24.3533L15.002 24.3532V24.3531ZM30 26H27V24.2925C27 24.1942 26.9928 24.0965 26.9786 24C26.9857 24 26.9928 24 27 24C28.6986 24 29.6381 24.8814 30 25.3156V26ZM11 20C11 18.8961 11.8961 18 13 18C14.1039 18 15 18.8961 15 20C15 21.1039 14.1039 22 13 22C11.8961 22 11 21.1039 11 20ZM25 20C25 18.8961 25.8961 18 27 18C28.1039 18 29 18.8961 29 20C29 21.1039 28.1039 22 27 22C25.8961 22 25 21.1039 25 20ZM17 17C17 15.3446 18.3446 14 20 14C21.6554 14 23 15.3446 23 17C23 18.6554 21.6554 20 20 20C18.3446 20 17 18.6554 17 17Z" stroke="#4FD8EC" stroke-opacity="0.05"/>
</svg>
