<svg width="40" height="40" viewBox="0 0 40 40" fill="none" xmlns="http://www.w3.org/2000/svg">
<rect width="40" height="40" rx="8" fill="#D0F8FF"/>
<path d="M21.6517 22.1466C21.1613 22.4864 20.5865 22.6667 20 22.6667C19.2139 22.6667 18.4565 22.343 17.8956 21.7612C17.3341 21.1789 17.0159 20.3858 17.0159 19.5556C17.0159 18.9367 17.1929 18.333 17.5229 17.8209C17.8527 17.309 18.3199 16.9125 18.8634 16.679C19.4066 16.4456 20.0035 16.3849 20.5791 16.5036C21.1548 16.6224 21.686 16.916 22.1044 17.3499L22.4163 17.0491L22.1044 17.3499C22.5231 17.784 22.8099 18.3391 22.9262 18.9456C23.0426 19.5522 22.9827 20.1809 22.7548 20.7514C22.527 21.3217 22.1423 21.8066 21.6517 22.1466ZM14.571 31.4311L14.316 31.677L14.571 31.4311C14.4917 31.3489 14.4444 31.2341 14.4444 31.1111C14.4444 29.5736 15.0335 28.1022 16.0773 27.0198C17.1205 25.938 18.5319 25.3333 20 25.3333C21.4681 25.3333 22.8795 25.938 23.9227 27.0198C24.9665 28.1022 25.5556 29.5736 25.5556 31.1111C25.5556 31.2341 25.5083 31.3489 25.429 31.4311L25.7489 31.7397L25.429 31.4311C25.3503 31.5128 25.247 31.5556 25.1429 31.5556H14.8571C14.753 31.5556 14.6497 31.5128 14.571 31.4311Z" fill="#006A76"/>
<path d="M21.6517 22.1466C21.1613 22.4864 20.5865 22.6667 20 22.6667C19.2139 22.6667 18.4565 22.343 17.8956 21.7612C17.3341 21.1789 17.0159 20.3858 17.0159 19.5556C17.0159 18.9367 17.1929 18.333 17.5229 17.8209C17.8527 17.309 18.3199 16.9125 18.8634 16.679C19.4066 16.4456 20.0035 16.3849 20.5791 16.5036C21.1548 16.6224 21.686 16.916 22.1044 17.3499L22.4163 17.0491L22.1044 17.3499C22.5231 17.784 22.8099 18.3391 22.9262 18.9456C23.0426 19.5522 22.9827 20.1809 22.7548 20.7514C22.527 21.3217 22.1423 21.8066 21.6517 22.1466ZM14.571 31.4311L14.316 31.677L14.571 31.4311C14.4917 31.3489 14.4444 31.2341 14.4444 31.1111C14.4444 29.5736 15.0335 28.1022 16.0773 27.0198C17.1205 25.938 18.5319 25.3333 20 25.3333C21.4681 25.3333 22.8795 25.938 23.9227 27.0198C24.9665 28.1022 25.5556 29.5736 25.5556 31.1111C25.5556 31.2341 25.5083 31.3489 25.429 31.4311L25.7489 31.7397L25.429 31.4311C25.3503 31.5128 25.247 31.5556 25.1429 31.5556H14.8571C14.753 31.5556 14.6497 31.5128 14.571 31.4311Z" stroke="#191C1D" stroke-width="0.888889"/>
<path d="M21.6517 22.1466C21.1613 22.4864 20.5865 22.6667 20 22.6667C19.2139 22.6667 18.4565 22.343 17.8956 21.7612C17.3341 21.1789 17.0159 20.3858 17.0159 19.5556C17.0159 18.9367 17.1929 18.333 17.5229 17.8209C17.8527 17.309 18.3199 16.9125 18.8634 16.679C19.4066 16.4456 20.0035 16.3849 20.5791 16.5036C21.1548 16.6224 21.686 16.916 22.1044 17.3499L22.4163 17.0491L22.1044 17.3499C22.5231 17.784 22.8099 18.3391 22.9262 18.9456C23.0426 19.5522 22.9827 20.1809 22.7548 20.7514C22.527 21.3217 22.1423 21.8066 21.6517 22.1466ZM14.571 31.4311L14.316 31.677L14.571 31.4311C14.4917 31.3489 14.4444 31.2341 14.4444 31.1111C14.4444 29.5736 15.0335 28.1022 16.0773 27.0198C17.1205 25.938 18.5319 25.3333 20 25.3333C21.4681 25.3333 22.8795 25.938 23.9227 27.0198C24.9665 28.1022 25.5556 29.5736 25.5556 31.1111C25.5556 31.2341 25.5083 31.3489 25.429 31.4311L25.7489 31.7397L25.429 31.4311C25.3503 31.5128 25.247 31.5556 25.1429 31.5556H14.8571C14.753 31.5556 14.6497 31.5128 14.571 31.4311Z" stroke="#4FD8EC" stroke-opacity="0.05" stroke-width="0.888889"/>
<path d="M19.6015 13.8033L19.7656 14.1124L19.6015 13.8033L18.3887 14.4471C18.2784 14.5056 18.149 14.4117 18.1706 14.2887L18.4081 12.9363C18.4569 12.6584 18.3646 12.3744 18.1618 12.1782L17.1747 11.2237C17.085 11.1369 17.1344 10.9848 17.258 10.9674L18.6176 10.7754C18.897 10.7359 19.1386 10.5604 19.2625 10.3068L19.8652 9.07315C19.92 8.96094 20.08 8.96094 20.1348 9.07315L20.7375 10.3068C20.8614 10.5604 21.103 10.7359 21.3824 10.7754L22.742 10.9674C22.8656 10.9848 22.915 11.1369 22.8253 11.2237L21.8382 12.1782C21.6354 12.3744 21.5431 12.6584 21.5919 12.9363L21.8294 14.2887C21.851 14.4117 21.7216 14.5056 21.6113 14.4471L20.3985 13.8033C20.1493 13.671 19.8507 13.671 19.6015 13.8033Z" fill="#006A76"/>
<path d="M19.6015 13.8033L19.7656 14.1124L19.6015 13.8033L18.3887 14.4471C18.2784 14.5056 18.149 14.4117 18.1706 14.2887L18.4081 12.9363C18.4569 12.6584 18.3646 12.3744 18.1618 12.1782L17.1747 11.2237C17.085 11.1369 17.1344 10.9848 17.258 10.9674L18.6176 10.7754C18.897 10.7359 19.1386 10.5604 19.2625 10.3068L19.8652 9.07315C19.92 8.96094 20.08 8.96094 20.1348 9.07315L20.7375 10.3068C20.8614 10.5604 21.103 10.7359 21.3824 10.7754L22.742 10.9674C22.8656 10.9848 22.915 11.1369 22.8253 11.2237L21.8382 12.1782C21.6354 12.3744 21.5431 12.6584 21.5919 12.9363L21.8294 14.2887C21.851 14.4117 21.7216 14.5056 21.6113 14.4471L20.3985 13.8033C20.1493 13.671 19.8507 13.671 19.6015 13.8033Z" stroke="#191C1D" stroke-width="0.7"/>
<path d="M19.6015 13.8033L19.7656 14.1124L19.6015 13.8033L18.3887 14.4471C18.2784 14.5056 18.149 14.4117 18.1706 14.2887L18.4081 12.9363C18.4569 12.6584 18.3646 12.3744 18.1618 12.1782L17.1747 11.2237C17.085 11.1369 17.1344 10.9848 17.258 10.9674L18.6176 10.7754C18.897 10.7359 19.1386 10.5604 19.2625 10.3068L19.8652 9.07315C19.92 8.96094 20.08 8.96094 20.1348 9.07315L20.7375 10.3068C20.8614 10.5604 21.103 10.7359 21.3824 10.7754L22.742 10.9674C22.8656 10.9848 22.915 11.1369 22.8253 11.2237L21.8382 12.1782C21.6354 12.3744 21.5431 12.6584 21.5919 12.9363L21.8294 14.2887C21.851 14.4117 21.7216 14.5056 21.6113 14.4471L20.3985 13.8033C20.1493 13.671 19.8507 13.671 19.6015 13.8033Z" stroke="#4FD8EC" stroke-opacity="0.05" stroke-width="0.7"/>
<path d="M24.8981 15.6014L24.6548 15.853L24.8981 15.6014L24.1503 14.8782C24.0605 14.7914 24.1099 14.6393 24.2336 14.6219L25.2637 14.4764C25.5431 14.4369 25.7847 14.2614 25.9085 14.0079L26.3652 13.0731C26.42 12.9609 26.58 12.9609 26.6348 13.0731L27.0915 14.0079C27.2153 14.2614 27.4569 14.4369 27.7363 14.4764L28.7664 14.6219C28.8901 14.6393 28.9395 14.7914 28.8497 14.8782L28.1019 15.6014C27.899 15.7976 27.8067 16.0816 27.8555 16.3595L28.0355 17.3841C28.0571 17.5071 27.9277 17.6011 27.8174 17.5426L26.8985 17.0548C26.6493 16.9225 26.3507 16.9225 26.1015 17.0548L26.2656 17.3639L26.1015 17.0548L25.1826 17.5426C25.0723 17.6011 24.9429 17.5071 24.9645 17.3841L25.1445 16.3595C25.1933 16.0816 25.101 15.7976 24.8981 15.6014Z" fill="#006A76"/>
<path d="M24.8981 15.6014L24.6548 15.853L24.8981 15.6014L24.1503 14.8782C24.0605 14.7914 24.1099 14.6393 24.2336 14.6219L25.2637 14.4764C25.5431 14.4369 25.7847 14.2614 25.9085 14.0079L26.3652 13.0731C26.42 12.9609 26.58 12.9609 26.6348 13.0731L27.0915 14.0079C27.2153 14.2614 27.4569 14.4369 27.7363 14.4764L28.7664 14.6219C28.8901 14.6393 28.9395 14.7914 28.8497 14.8782L28.1019 15.6014C27.899 15.7976 27.8067 16.0816 27.8555 16.3595L28.0355 17.3841C28.0571 17.5071 27.9277 17.6011 27.8174 17.5426L26.8985 17.0548C26.6493 16.9225 26.3507 16.9225 26.1015 17.0548L26.2656 17.3639L26.1015 17.0548L25.1826 17.5426C25.0723 17.6011 24.9429 17.5071 24.9645 17.3841L25.1445 16.3595C25.1933 16.0816 25.101 15.7976 24.8981 15.6014Z" stroke="#191C1D" stroke-width="0.7"/>
<path d="M24.8981 15.6014L24.6548 15.853L24.8981 15.6014L24.1503 14.8782C24.0605 14.7914 24.1099 14.6393 24.2336 14.6219L25.2637 14.4764C25.5431 14.4369 25.7847 14.2614 25.9085 14.0079L26.3652 13.0731C26.42 12.9609 26.58 12.9609 26.6348 13.0731L27.0915 14.0079C27.2153 14.2614 27.4569 14.4369 27.7363 14.4764L28.7664 14.6219C28.8901 14.6393 28.9395 14.7914 28.8497 14.8782L28.1019 15.6014C27.899 15.7976 27.8067 16.0816 27.8555 16.3595L28.0355 17.3841C28.0571 17.5071 27.9277 17.6011 27.8174 17.5426L26.8985 17.0548C26.6493 16.9225 26.3507 16.9225 26.1015 17.0548L26.2656 17.3639L26.1015 17.0548L25.1826 17.5426C25.0723 17.6011 24.9429 17.5071 24.9645 17.3841L25.1445 16.3595C25.1933 16.0816 25.101 15.7976 24.8981 15.6014Z" stroke="#4FD8EC" stroke-opacity="0.05" stroke-width="0.7"/>
<path d="M11.8981 15.6014L11.6548 15.853L11.8981 15.6014L11.1503 14.8782C11.0605 14.7914 11.1099 14.6393 11.2336 14.6219L12.2637 14.4764C12.5431 14.4369 12.7847 14.2614 12.9085 14.0079L13.3652 13.0731C13.42 12.9609 13.58 12.9609 13.6348 13.0731L14.0915 14.0079C14.2153 14.2614 14.4569 14.4369 14.7363 14.4764L15.7664 14.6219C15.8901 14.6393 15.9395 14.7914 15.8497 14.8782L15.1019 15.6014C14.899 15.7976 14.8067 16.0816 14.8555 16.3595L15.0355 17.3841C15.0571 17.5071 14.9277 17.6011 14.8174 17.5426L13.8985 17.0548C13.6493 16.9225 13.3507 16.9225 13.1015 17.0548L13.2656 17.3639L13.1015 17.0548L12.1826 17.5426C12.0723 17.6011 11.9429 17.5071 11.9645 17.3841L12.1445 16.3595C12.1933 16.0816 12.101 15.7976 11.8981 15.6014Z" fill="#006A76"/>
<path d="M11.8981 15.6014L11.6548 15.853L11.8981 15.6014L11.1503 14.8782C11.0605 14.7914 11.1099 14.6393 11.2336 14.6219L12.2637 14.4764C12.5431 14.4369 12.7847 14.2614 12.9085 14.0079L13.3652 13.0731C13.42 12.9609 13.58 12.9609 13.6348 13.0731L14.0915 14.0079C14.2153 14.2614 14.4569 14.4369 14.7363 14.4764L15.7664 14.6219C15.8901 14.6393 15.9395 14.7914 15.8497 14.8782L15.1019 15.6014C14.899 15.7976 14.8067 16.0816 14.8555 16.3595L15.0355 17.3841C15.0571 17.5071 14.9277 17.6011 14.8174 17.5426L13.8985 17.0548C13.6493 16.9225 13.3507 16.9225 13.1015 17.0548L13.2656 17.3639L13.1015 17.0548L12.1826 17.5426C12.0723 17.6011 11.9429 17.5071 11.9645 17.3841L12.1445 16.3595C12.1933 16.0816 12.101 15.7976 11.8981 15.6014Z" stroke="#191C1D" stroke-width="0.7"/>
<path d="M11.8981 15.6014L11.6548 15.853L11.8981 15.6014L11.1503 14.8782C11.0605 14.7914 11.1099 14.6393 11.2336 14.6219L12.2637 14.4764C12.5431 14.4369 12.7847 14.2614 12.9085 14.0079L13.3652 13.0731C13.42 12.9609 13.58 12.9609 13.6348 13.0731L14.0915 14.0079C14.2153 14.2614 14.4569 14.4369 14.7363 14.4764L15.7664 14.6219C15.8901 14.6393 15.9395 14.7914 15.8497 14.8782L15.1019 15.6014C14.899 15.7976 14.8067 16.0816 14.8555 16.3595L15.0355 17.3841C15.0571 17.5071 14.9277 17.6011 14.8174 17.5426L13.8985 17.0548C13.6493 16.9225 13.3507 16.9225 13.1015 17.0548L13.2656 17.3639L13.1015 17.0548L12.1826 17.5426C12.0723 17.6011 11.9429 17.5071 11.9645 17.3841L12.1445 16.3595C12.1933 16.0816 12.101 15.7976 11.8981 15.6014Z" stroke="#4FD8EC" stroke-opacity="0.05" stroke-width="0.7"/>
</svg>
