<svg width="40" height="40" viewBox="0 0 40 40" fill="none" xmlns="http://www.w3.org/2000/svg">
<rect width="40" height="40" rx="4" fill="#D0F8FF"/>
<path d="M21.9445 17.9101C21.3689 18.2947 20.6922 18.5 20 18.5C19.0717 18.5 18.1815 18.1313 17.5251 17.4749C16.8687 16.8185 16.5 15.9283 16.5 15C16.5 14.3078 16.7053 13.6311 17.0899 13.0555C17.4744 12.4799 18.0211 12.0313 18.6606 11.7664C19.3001 11.5015 20.0039 11.4322 20.6828 11.5673C21.3617 11.7023 21.9854 12.0356 22.4749 12.5251C22.9644 13.0146 23.2977 13.6383 23.4327 14.3172C23.5678 14.9961 23.4985 15.6999 23.2336 16.3394C22.9687 16.9789 22.5201 17.5256 21.9445 17.9101ZM26.3536 28.3536C26.2598 28.4473 26.1326 28.5 26 28.5H14C13.8674 28.5 13.7402 28.4473 13.6464 28.3536C13.5527 28.2598 13.5 28.1326 13.5 28C13.5 26.2761 14.1848 24.6228 15.4038 23.4038C16.6228 22.1848 18.2761 21.5 20 21.5C21.7239 21.5 23.3772 22.1848 24.5962 23.4038C25.8152 24.6228 26.5 26.2761 26.5 28C26.5 28.1326 26.4473 28.2598 26.3536 28.3536Z" fill="#006A76"/>
<path d="M21.9445 17.9101C21.3689 18.2947 20.6922 18.5 20 18.5C19.0717 18.5 18.1815 18.1313 17.5251 17.4749C16.8687 16.8185 16.5 15.9283 16.5 15C16.5 14.3078 16.7053 13.6311 17.0899 13.0555C17.4744 12.4799 18.0211 12.0313 18.6606 11.7664C19.3001 11.5015 20.0039 11.4322 20.6828 11.5673C21.3617 11.7023 21.9854 12.0356 22.4749 12.5251C22.9644 13.0146 23.2977 13.6383 23.4327 14.3172C23.5678 14.9961 23.4985 15.6999 23.2336 16.3394C22.9687 16.9789 22.5201 17.5256 21.9445 17.9101ZM26.3536 28.3536C26.2598 28.4473 26.1326 28.5 26 28.5H14C13.8674 28.5 13.7402 28.4473 13.6464 28.3536C13.5527 28.2598 13.5 28.1326 13.5 28C13.5 26.2761 14.1848 24.6228 15.4038 23.4038C16.6228 22.1848 18.2761 21.5 20 21.5C21.7239 21.5 23.3772 22.1848 24.5962 23.4038C25.8152 24.6228 26.5 26.2761 26.5 28C26.5 28.1326 26.4473 28.2598 26.3536 28.3536Z" stroke="#191C1D"/>
<path d="M21.9445 17.9101C21.3689 18.2947 20.6922 18.5 20 18.5C19.0717 18.5 18.1815 18.1313 17.5251 17.4749C16.8687 16.8185 16.5 15.9283 16.5 15C16.5 14.3078 16.7053 13.6311 17.0899 13.0555C17.4744 12.4799 18.0211 12.0313 18.6606 11.7664C19.3001 11.5015 20.0039 11.4322 20.6828 11.5673C21.3617 11.7023 21.9854 12.0356 22.4749 12.5251C22.9644 13.0146 23.2977 13.6383 23.4327 14.3172C23.5678 14.9961 23.4985 15.6999 23.2336 16.3394C22.9687 16.9789 22.5201 17.5256 21.9445 17.9101ZM26.3536 28.3536C26.2598 28.4473 26.1326 28.5 26 28.5H14C13.8674 28.5 13.7402 28.4473 13.6464 28.3536C13.5527 28.2598 13.5 28.1326 13.5 28C13.5 26.2761 14.1848 24.6228 15.4038 23.4038C16.6228 22.1848 18.2761 21.5 20 21.5C21.7239 21.5 23.3772 22.1848 24.5962 23.4038C25.8152 24.6228 26.5 26.2761 26.5 28C26.5 28.1326 26.4473 28.2598 26.3536 28.3536Z" stroke="#4FD8EC" stroke-opacity="0.05"/>
</svg>
