<svg width="46" height="46" viewBox="0 0 46 46" fill="none" xmlns="http://www.w3.org/2000/svg">
<g filter="url(#filter0_d_3016_5118)">
<path d="M4 4C4 1.79086 5.79086 0 8 0H38C40.2091 0 42 1.79086 42 4V38H4V4Z" fill="white" shape-rendering="crispEdges"/>
<path d="M29.0498 17.5H24.5498V13C24.5498 12.4688 24.0811 12 23.5498 12H22.5498C21.9873 12 21.5498 12.4688 21.5498 13V17.5H17.0498C16.4873 17.5 16.0498 17.9688 16.0498 18.5V19.5C16.0498 20.0625 16.4873 20.5 17.0498 20.5H21.5498V25C21.5498 25.5625 21.9873 26 22.5498 26H23.5498C24.0811 26 24.5498 25.5625 24.5498 25V20.5H29.0498C29.5811 20.5 30.0498 20.0625 30.0498 19.5V18.5C30.0498 17.9688 29.5811 17.5 29.0498 17.5Z" fill="#666666"/>
<path d="M5 4C5 2.34315 6.34315 1 8 1H38C39.6569 1 41 2.34315 41 4V37H5V4Z" stroke="white" stroke-width="2" shape-rendering="crispEdges"/>
</g>
<defs>
<filter id="filter0_d_3016_5118" x="0" y="0" width="46" height="46" filterUnits="userSpaceOnUse" color-interpolation-filters="sRGB">
<feFlood flood-opacity="0" result="BackgroundImageFix"/>
<feColorMatrix in="SourceAlpha" type="matrix" values="0 0 0 0 0 0 0 0 0 0 0 0 0 0 0 0 0 0 127 0" result="hardAlpha"/>
<feOffset dy="4"/>
<feGaussianBlur stdDeviation="2"/>
<feComposite in2="hardAlpha" operator="out"/>
<feColorMatrix type="matrix" values="0 0 0 0 0 0 0 0 0 0 0 0 0 0 0 0 0 0 0.25 0"/>
<feBlend mode="normal" in2="BackgroundImageFix" result="effect1_dropShadow_3016_5118"/>
<feBlend mode="normal" in="SourceGraphic" in2="effect1_dropShadow_3016_5118" result="shape"/>
</filter>
</defs>
</svg>
