<svg width="46" height="46" viewBox="0 0 46 46" fill="none" xmlns="http://www.w3.org/2000/svg">
<g filter="url(#filter0_d_3016_5121)">
<mask id="path-1-inside-1_3016_5121" fill="white">
<path d="M4 0H42V34C42 36.2091 40.2091 38 38 38H8C5.79086 38 4 36.2091 4 34V0Z"/>
</mask>
<path d="M4 0H42V34C42 36.2091 40.2091 38 38 38H8C5.79086 38 4 36.2091 4 34V0Z" fill="white" shape-rendering="crispEdges"/>
<path d="M29.0498 16.5H17.0498C16.4873 16.5 16.0498 16.9688 16.0498 17.5V18.5C16.0498 19.0625 16.4873 19.5 17.0498 19.5H29.0498C29.5811 19.5 30.0498 19.0625 30.0498 18.5V17.5C30.0498 16.9688 29.5811 16.5 29.0498 16.5Z" fill="#666666"/>
<path d="M4 0H42H4ZM44 34C44 37.3137 41.3137 40 38 40H8C4.68629 40 2 37.3137 2 34H6C6 35.1046 6.89543 36 8 36H38C39.1046 36 40 35.1046 40 34H44ZM8 40C4.68629 40 2 37.3137 2 34V0H6V34C6 35.1046 6.89543 36 8 36V40ZM44 0V34C44 37.3137 41.3137 40 38 40V36C39.1046 36 40 35.1046 40 34V0H44Z" fill="white" mask="url(#path-1-inside-1_3016_5121)"/>
</g>
<defs>
<filter id="filter0_d_3016_5121" x="0" y="0" width="46" height="46" filterUnits="userSpaceOnUse" color-interpolation-filters="sRGB">
<feFlood flood-opacity="0" result="BackgroundImageFix"/>
<feColorMatrix in="SourceAlpha" type="matrix" values="0 0 0 0 0 0 0 0 0 0 0 0 0 0 0 0 0 0 127 0" result="hardAlpha"/>
<feOffset dy="4"/>
<feGaussianBlur stdDeviation="2"/>
<feComposite in2="hardAlpha" operator="out"/>
<feColorMatrix type="matrix" values="0 0 0 0 0 0 0 0 0 0 0 0 0 0 0 0 0 0 0.25 0"/>
<feBlend mode="normal" in2="BackgroundImageFix" result="effect1_dropShadow_3016_5121"/>
<feBlend mode="normal" in="SourceGraphic" in2="effect1_dropShadow_3016_5121" result="shape"/>
</filter>
</defs>
</svg>
